<svg data-v-423bf9ae="" xmlns="http://www.w3.org/2000/svg" viewBox="0 0 323 90" class="iconLeftSlogan"><!----><!----><!----><g data-v-423bf9ae="" id="2ad969ab-5951-4a4d-b4c0-cc849efd0388" fill="black" transform="matrix(5.415162492161021,0,0,5.415162492161021,144.92702498491008,-16.624549204688975)"><path d="M4.13 4.20Q5.21 4.20 5.97 4.45Q6.73 4.69 7.32 5.77Q7.91 6.85 7.91 9.10L7.91 9.10Q7.91 11.35 7.32 12.43Q6.73 13.51 5.97 13.76Q5.21 14 4.13 14L4.13 14L1.37 14L1.37 4.20L4.13 4.20ZM4.17 12.67Q4.98 12.67 5.43 12.36Q5.88 12.05 6.08 11.29Q6.29 10.53 6.29 9.10L6.29 9.10Q6.29 7.67 6.08 6.91Q5.88 6.15 5.43 5.84Q4.98 5.53 4.17 5.53L4.17 5.53L2.94 5.53L2.94 12.67L4.17 12.67ZM12.64 14.15Q11.23 14.15 10.29 13.27Q9.35 12.38 9.35 10.49L9.35 10.49Q9.35 9.21 9.81 8.39Q10.26 7.57 11.00 7.20Q11.75 6.83 12.64 6.83L12.64 6.83Q13.54 6.83 14.27 7.20Q15.01 7.57 15.46 8.39Q15.92 9.21 15.92 10.49L15.92 10.49Q15.92 11.77 15.46 12.59Q15.01 13.41 14.27 13.78Q13.54 14.15 12.64 14.15L12.64 14.15ZM12.64 12.81Q13.30 12.81 13.78 12.27Q14.27 11.73 14.27 10.49L14.27 10.49Q14.27 9.25 13.78 8.71Q13.30 8.18 12.64 8.18L12.64 8.18Q11.97 8.18 11.49 8.71Q11.00 9.24 11.00 10.49L11.00 10.49Q11.00 11.73 11.49 12.27Q11.97 12.81 12.64 12.81L12.64 12.81ZM11.16 5.03Q10.75 5.03 10.46 4.75Q10.18 4.47 10.18 4.06L10.18 4.06Q10.18 3.64 10.46 3.35Q10.75 3.07 11.16 3.07L11.16 3.07Q11.56 3.07 11.84 3.35Q12.12 3.64 12.12 4.06L12.12 4.06Q12.12 4.47 11.84 4.75Q11.56 5.03 11.16 5.03L11.16 5.03ZM14.08 5.03Q13.68 5.03 13.40 4.75Q13.12 4.47 13.12 4.06L13.12 4.06Q13.12 3.64 13.40 3.35Q13.68 3.07 14.08 3.07L14.08 3.07Q14.49 3.07 14.78 3.35Q15.06 3.64 15.06 4.06L15.06 4.06Q15.06 4.47 14.78 4.75Q14.49 5.03 14.08 5.03L14.08 5.03ZM22.39 7L24.02 7L22.32 14L19.74 14L18.03 7L19.67 7L20.89 12.67L21.17 12.67L22.39 7ZM29.78 6.83Q31.28 6.83 32.07 7.82Q32.87 8.81 32.87 10.51L32.87 10.51Q32.87 10.81 32.86 10.95L32.86 10.95L28.04 10.95Q28.11 11.96 28.55 12.38Q28.99 12.81 29.75 12.81L29.75 12.81Q30.80 12.81 31.33 11.94L31.33 11.94L32.66 12.67Q32.20 13.41 31.42 13.78Q30.63 14.15 29.74 14.15L29.74 14.15Q28.81 14.15 28.06 13.76Q27.31 13.37 26.87 12.54Q26.43 11.72 26.43 10.49L26.43 10.49Q26.43 9.24 26.88 8.42Q27.33 7.60 28.08 7.22Q28.84 6.83 29.78 6.83L29.78 6.83ZM28.08 9.74L31.28 9.74Q31.21 8.96 30.84 8.56Q30.46 8.16 29.75 8.16L29.75 8.16Q29.08 8.16 28.64 8.53Q28.21 8.89 28.08 9.74L28.08 9.74Z"></path></g><!----><g data-v-423bf9ae="" id="f9ae63c9-1eb6-435f-9e0c-5f25df808378" transform="matrix(1.3234385384519765,0,0,1.3234385384519765,0.8277166923267174,-0.000428770071657425)" stroke="none" fill="black"><circle cx="13.335" cy="44.095" r="2.02"></circle><path d="M98.97 48.211c-11.74-4.688-23.077 1.095-35.083 7.217-6.003 3.062-12.213 6.227-18.636 8.122-17.95 5.3-32.268-9.386-32.477-9.604a1.637 1.637 0 00-2.373 2.253c.537.565 11.416 11.807 26.758 11.807 2.863 0 5.882-.392 9.019-1.317 6.713-1.982 13.061-5.217 19.198-8.347C76.702 52.569 87.4 47.114 97.757 51.25a1.635 1.635 0 101.213-3.039zM29.562 36.489c-3.855 4.445-5.504 9.982-3.599 13.961a1.636 1.636 0 102.953-1.413c-1.924-4.019 2.024-11.062 8.124-14.493 1.566-.881 3.242-1.795 5.017-2.763 9.928-5.417 22.045-12.029 27.322-19.612 2.002 4.059 4.604 13.154-5.132 22.89a1.636 1.636 0 102.313 2.315c2.798-2.8 4.696-5.577 5.932-8.243 1.244 2.975 2.276 8.664-3.796 14.737a1.632 1.632 0 000 2.312c.318.32.738.48 1.156.48.419 0 .838-.16 1.156-.48 10.534-10.533 3.267-20.697 2.919-21.168 2.293-9.615-3.189-16.942-3.268-17.044a1.636 1.636 0 00-2.776.299c-3.631 7.673-16.808 14.863-27.396 20.64a466.036 466.036 0 00-5.053 2.783 22.171 22.171 0 00-3.253 2.239 48.382 48.382 0 00-7.155-2.036c-.976-2.34.271-6.7 2.775-9.291l.421-.436c4.872-5.035 11.232-11.609 13.897-17.017 1.418 2.694 2.771 7.551-.609 13.784a1.638 1.638 0 002.878 1.561C50.803 8.66 42.887.558 42.807.477a1.638 1.638 0 00-2.764.86c-.901 4.837-8.888 13.092-14.172 18.555l-.422.436c-2.645 2.736-4.454 7.326-3.929 11.021-5.788-.615-12.24.206-15.232 5.824-1.3.372-3.866 1.3-5.811 3.245a1.635 1.635 0 102.314 2.313c1.934-1.935 4.916-2.545 4.941-2.55a1.639 1.639 0 001.184-.938c3.367-7.533 15.794-4.34 20.646-2.754z"></path></g><!----><g data-v-423bf9ae="" id="3b03643e-d88c-4633-a6b9-e516a63a9b26" fill="black" transform="matrix(0.5227831558738021,0,0,0.5227831558738021,152.07394846931348,58.01865338763437)"><path d="M8.43 12.21C8.40 12.18 8.36 12.15 8.32 12.15C8.29 12.15 8.27 12.15 8.25 12.17C8.23 12.18 8.20 12.21 8.18 12.22C7.98 12.40 7.77 12.56 7.57 12.70C7.38 12.84 7.17 12.94 6.93 13.03C6.69 13.13 6.44 13.20 6.16 13.24C5.88 13.29 5.57 13.31 5.22 13.31C4.66 13.31 4.12 13.22 3.64 13.01C3.15 12.81 2.74 12.52 2.39 12.14C2.04 11.76 1.75 11.28 1.55 10.74C1.36 10.19 1.26 9.56 1.26 8.86C1.26 8.18 1.36 7.56 1.55 7.01C1.76 6.47 2.04 6.01 2.41 5.61C2.77 5.24 3.21 4.94 3.71 4.73C4.21 4.52 4.76 4.42 5.36 4.42C6.26 4.42 7.08 4.56 7.81 4.89C7.85 5.78 7.90 6.30 7.90 6.41C7.91 6.64 7.99 6.75 8.19 6.75L8.53 6.75L8.53 4.51C7.35 4.03 6.29 3.81 5.36 3.81C4.65 3.81 4.00 3.92 3.40 4.17C2.81 4.42 2.28 4.76 1.86 5.21C1.43 5.66 1.11 6.19 0.87 6.80C0.63 7.42 0.52 8.11 0.52 8.86C0.52 9.63 0.64 10.32 0.87 10.95C1.09 11.58 1.41 12.10 1.82 12.54C2.23 12.99 2.72 13.33 3.29 13.57C3.86 13.80 4.48 13.93 5.17 13.93C5.57 13.93 5.95 13.90 6.30 13.83C6.64 13.76 6.96 13.66 7.25 13.54C7.53 13.41 7.80 13.26 8.04 13.09C8.27 12.91 8.50 12.73 8.71 12.50ZM25.98 8.86C25.98 8.11 25.86 7.41 25.63 6.79C25.41 6.17 25.09 5.64 24.67 5.19C24.25 4.75 23.76 4.40 23.18 4.16C22.61 3.92 21.95 3.79 21.25 3.79C20.55 3.79 19.92 3.92 19.35 4.16C18.77 4.40 18.27 4.75 17.85 5.19C17.43 5.64 17.11 6.17 16.88 6.79C16.66 7.41 16.53 8.11 16.53 8.86C16.53 9.63 16.66 10.33 16.88 10.95C17.11 11.56 17.43 12.10 17.85 12.54C18.27 12.99 18.77 13.33 19.35 13.57C19.92 13.80 20.55 13.93 21.25 13.93C21.95 13.93 22.61 13.80 23.18 13.57C23.76 13.33 24.25 12.99 24.67 12.54C25.09 12.10 25.41 11.56 25.63 10.95C25.86 10.33 25.98 9.63 25.98 8.86ZM25.23 8.86C25.23 9.56 25.14 10.18 24.95 10.72C24.75 11.27 24.49 11.75 24.14 12.12C23.79 12.50 23.37 12.81 22.88 13.01C22.39 13.20 21.85 13.30 21.25 13.30C20.66 13.30 20.13 13.20 19.64 13.01C19.15 12.81 18.73 12.50 18.38 12.12C18.03 11.75 17.75 11.27 17.56 10.72C17.36 10.18 17.28 9.56 17.28 8.86C17.28 8.18 17.36 7.55 17.56 7.00C17.75 6.45 18.03 5.98 18.38 5.60C18.73 5.22 19.15 4.91 19.64 4.72C20.13 4.52 20.66 4.41 21.25 4.41C21.85 4.41 22.39 4.52 22.88 4.72C23.37 4.91 23.79 5.22 24.14 5.60C24.49 5.98 24.75 6.45 24.95 7.00C25.14 7.55 25.23 8.18 25.23 8.86ZM42.81 3.92L42.18 3.92L40.96 3.92L40.96 4.19C40.96 4.34 41.06 4.42 41.24 4.44L41.38 4.44C41.45 4.44 41.57 4.45 41.71 4.45C41.85 4.45 42.01 4.47 42.18 4.47L42.18 12.22C42.18 12.35 42.18 12.49 42.20 12.63L35.78 4.05C35.74 3.99 35.71 3.95 35.67 3.93C35.63 3.92 35.59 3.91 35.52 3.91L35.17 3.91L33.98 3.91L33.98 4.19C33.98 4.34 34.08 4.42 34.26 4.44L34.40 4.44C34.47 4.44 34.57 4.45 34.71 4.45C34.85 4.45 35 4.47 35.17 4.47L35.17 13.26C35 13.26 34.85 13.27 34.71 13.27C34.57 13.27 34.47 13.29 34.40 13.29L34.26 13.29C34.08 13.30 33.98 13.38 33.98 13.54L33.98 13.82L35.17 13.82L35.78 13.82L37.00 13.82L37.00 13.54C37.00 13.38 36.90 13.30 36.72 13.29L36.58 13.29C36.51 13.29 36.39 13.27 36.25 13.27C36.11 13.27 35.95 13.26 35.78 13.26L35.78 5.49C35.78 5.36 35.78 5.22 35.77 5.08L42.21 13.68C42.28 13.78 42.35 13.82 42.46 13.82L42.81 13.82L42.81 4.47C42.98 4.47 43.12 4.45 43.26 4.45C43.40 4.45 43.51 4.44 43.58 4.44L43.71 4.44C43.89 4.42 43.99 4.34 43.99 4.19L43.99 3.92ZM60.86 3.92L60.23 3.92L59.01 3.92L59.01 4.19C59.01 4.34 59.11 4.42 59.29 4.44L59.43 4.44C59.50 4.44 59.61 4.45 59.75 4.45C59.89 4.45 60.06 4.47 60.23 4.47L60.23 12.22C60.23 12.35 60.23 12.49 60.24 12.63L53.83 4.05C53.79 3.99 53.76 3.95 53.72 3.93C53.68 3.92 53.63 3.91 53.56 3.91L53.21 3.91L52.02 3.91L52.02 4.19C52.02 4.34 52.12 4.42 52.30 4.44L52.44 4.44C52.51 4.44 52.61 4.45 52.75 4.45C52.89 4.45 53.05 4.47 53.21 4.47L53.21 13.26C53.05 13.26 52.89 13.27 52.75 13.27C52.61 13.27 52.51 13.29 52.44 13.29L52.30 13.29C52.12 13.30 52.02 13.38 52.02 13.54L52.02 13.82L53.21 13.82L53.83 13.82L55.05 13.82L55.05 13.54C55.05 13.38 54.95 13.30 54.77 13.29L54.63 13.29C54.56 13.29 54.43 13.27 54.29 13.27C54.15 13.27 54.00 13.26 53.83 13.26L53.83 5.49C53.83 5.36 53.83 5.22 53.82 5.08L60.26 13.68C60.33 13.78 60.40 13.82 60.51 13.82L60.86 13.82L60.86 4.47C61.03 4.47 61.17 4.45 61.31 4.45C61.45 4.45 61.56 4.44 61.63 4.44L61.75 4.44C61.94 4.42 62.03 4.34 62.03 4.19L62.03 3.92ZM71.26 3.92L70.07 3.92L70.07 4.19C70.07 4.34 70.17 4.42 70.35 4.44L70.49 4.44C70.56 4.44 70.66 4.45 70.80 4.45C70.94 4.45 71.09 4.47 71.26 4.47L71.26 13.26C71.09 13.26 70.94 13.27 70.80 13.27C70.66 13.27 70.56 13.29 70.49 13.29L70.35 13.29C70.17 13.30 70.08 13.38 70.08 13.54L70.08 13.82L71.26 13.82L77.20 13.82L77.20 13.22L77.20 11.76L76.85 11.76C76.65 11.76 76.57 11.89 76.55 12.11C76.55 12.14 76.54 12.19 76.54 12.29C76.54 12.39 76.54 12.53 76.52 12.74C76.51 12.95 76.50 13.09 76.50 13.22L71.97 13.22L71.97 9.09L75.92 9.09L75.92 8.51L71.97 8.51L71.97 4.51L76.50 4.51C76.52 5.12 76.55 5.50 76.55 5.63C76.57 5.85 76.65 5.96 76.85 5.96L77.20 5.96L77.20 4.51L77.20 3.92ZM93.39 12.21C93.37 12.18 93.32 12.15 93.28 12.15C93.25 12.15 93.24 12.15 93.21 12.17C93.20 12.18 93.17 12.21 93.14 12.22C92.95 12.40 92.74 12.56 92.54 12.70C92.34 12.84 92.13 12.94 91.90 13.03C91.66 13.13 91.41 13.20 91.13 13.24C90.85 13.29 90.54 13.31 90.19 13.31C89.63 13.31 89.08 13.22 88.61 13.01C88.12 12.81 87.71 12.52 87.36 12.14C87.01 11.76 86.72 11.28 86.52 10.74C86.32 10.19 86.23 9.56 86.23 8.86C86.23 8.18 86.32 7.56 86.52 7.01C86.73 6.47 87.01 6.01 87.37 5.61C87.74 5.24 88.17 4.94 88.68 4.73C89.18 4.52 89.73 4.42 90.33 4.42C91.22 4.42 92.05 4.56 92.78 4.89C92.82 5.78 92.86 6.30 92.86 6.41C92.88 6.64 92.96 6.75 93.16 6.75L93.49 6.75L93.49 4.51C92.32 4.03 91.25 3.81 90.33 3.81C89.61 3.81 88.97 3.92 88.37 4.17C87.78 4.42 87.25 4.76 86.83 5.21C86.39 5.66 86.07 6.19 85.83 6.80C85.60 7.42 85.48 8.11 85.48 8.86C85.48 9.63 85.61 10.32 85.83 10.95C86.06 11.58 86.38 12.10 86.79 12.54C87.19 12.99 87.68 13.33 88.26 13.57C88.83 13.80 89.45 13.93 90.13 13.93C90.54 13.93 90.92 13.90 91.27 13.83C91.60 13.76 91.92 13.66 92.22 13.54C92.50 13.41 92.76 13.26 93.00 13.09C93.24 12.91 93.46 12.73 93.67 12.50ZM109.83 3.92L109.63 3.92L102.34 3.92L102.13 3.92L102.03 3.92L102.03 5.96L102.38 5.96C102.58 5.96 102.66 5.85 102.68 5.63C102.68 5.53 102.70 5.17 102.73 4.52L105.63 4.52L105.63 13.26C105.46 13.26 105.32 13.27 105.18 13.27C105.04 13.27 104.93 13.29 104.86 13.29L104.73 13.29C104.55 13.30 104.45 13.38 104.45 13.54L104.45 13.82L105.63 13.82L106.34 13.82L107.53 13.82L107.53 13.54C107.53 13.38 107.44 13.30 107.25 13.29L107.11 13.29C107.04 13.29 106.95 13.27 106.81 13.27C106.67 13.27 106.51 13.26 106.34 13.26L106.34 4.52L109.23 4.52C109.27 5.24 109.28 5.60 109.28 5.63C109.30 5.85 109.40 5.96 109.59 5.96L109.93 5.96L109.93 3.92ZM142.21 3.92L141.67 3.92L141.62 3.92L140.15 3.92L140.15 4.19C140.15 4.34 140.24 4.42 140.42 4.44L140.55 4.44C140.60 4.44 140.70 4.45 140.84 4.45C140.98 4.45 141.12 4.47 141.29 4.47L138.91 12.24C138.88 12.33 138.85 12.43 138.84 12.54C138.82 12.66 138.80 12.75 138.77 12.87C138.74 12.75 138.73 12.63 138.70 12.53L138.61 12.24L135.81 4.10C135.79 4.05 135.76 3.99 135.72 3.96C135.67 3.93 135.62 3.92 135.55 3.92L135.35 3.92C135.28 3.92 135.23 3.93 135.18 3.98C135.14 4.02 135.10 4.05 135.09 4.10L132.29 12.25C132.26 12.35 132.23 12.43 132.20 12.54C132.17 12.64 132.16 12.75 132.13 12.88C132.12 12.78 132.09 12.67 132.06 12.54C132.05 12.43 132.02 12.33 131.99 12.24L129.61 4.47C129.78 4.47 129.92 4.45 130.05 4.45C130.17 4.45 130.26 4.44 130.31 4.44L130.42 4.44C130.61 4.42 130.70 4.34 130.70 4.19L130.70 3.92L129.23 3.92L128.65 3.92L128.04 3.92L128.04 4.19C128.04 4.34 128.14 4.42 128.32 4.44L128.42 4.44C128.46 4.44 128.51 4.45 128.58 4.45C128.65 4.45 128.73 4.47 128.81 4.47L131.77 13.82L132.40 13.82L135.34 5.22C135.38 5.11 135.41 5.00 135.44 4.87C135.46 5.00 135.49 5.11 135.53 5.22L138.46 13.82L139.10 13.82L142.04 4.47C142.13 4.47 142.20 4.45 142.27 4.45C142.34 4.45 142.39 4.44 142.44 4.44L142.53 4.44C142.72 4.42 142.80 4.34 142.80 4.19L142.80 3.92ZM153.66 4.44C153.85 4.42 153.93 4.34 153.93 4.19L153.93 3.91L152.75 3.91L152.04 3.91L150.85 3.91L150.85 4.19C150.85 4.34 150.95 4.42 151.13 4.44L151.27 4.44C151.34 4.44 151.44 4.45 151.58 4.45C151.72 4.45 151.87 4.47 152.04 4.47L152.04 13.26C151.87 13.26 151.72 13.27 151.58 13.27C151.44 13.27 151.34 13.29 151.27 13.29L151.13 13.29C150.95 13.30 150.85 13.38 150.85 13.54L150.85 13.82L152.04 13.82L152.75 13.82L153.93 13.82L153.93 13.54C153.93 13.38 153.85 13.30 153.66 13.29L153.52 13.29C153.45 13.29 153.36 13.27 153.22 13.27C153.08 13.27 152.92 13.26 152.75 13.26L152.75 4.47C152.92 4.47 153.08 4.45 153.22 4.45C153.36 4.45 153.45 4.44 153.52 4.44ZM169.79 3.92L169.60 3.92L162.30 3.92L162.09 3.92L161.99 3.92L161.99 5.96L162.34 5.96C162.54 5.96 162.62 5.85 162.64 5.63C162.64 5.53 162.67 5.17 162.69 4.52L165.59 4.52L165.59 13.26C165.42 13.26 165.28 13.27 165.14 13.27C165.00 13.27 164.89 13.29 164.82 13.29L164.70 13.29C164.51 13.30 164.42 13.38 164.42 13.54L164.42 13.82L165.59 13.82L166.31 13.82L167.50 13.82L167.50 13.54C167.50 13.38 167.40 13.30 167.22 13.29L167.08 13.29C167.01 13.29 166.91 13.27 166.77 13.27C166.63 13.27 166.47 13.26 166.31 13.26L166.31 4.52L169.19 4.52C169.23 5.24 169.25 5.60 169.25 5.63C169.26 5.85 169.36 5.96 169.55 5.96L169.89 5.96L169.89 3.92ZM187.73 4.44C187.91 4.42 188.01 4.34 188.01 4.19L188.01 3.92L186.83 3.92L186.10 3.92L184.93 3.92L184.93 4.19C184.93 4.34 185.02 4.42 185.21 4.44L185.33 4.44C185.40 4.44 185.51 4.45 185.65 4.45C185.79 4.45 185.93 4.47 186.10 4.47L186.10 8.53L179.90 8.53L179.90 4.47C180.07 4.47 180.22 4.45 180.36 4.45C180.50 4.45 180.60 4.44 180.67 4.44L180.81 4.44C180.99 4.42 181.08 4.34 181.08 4.19L181.08 3.92L179.90 3.92L179.19 3.92L178.00 3.92L178.00 4.19C178.00 4.34 178.09 4.42 178.28 4.44L178.42 4.44C178.49 4.44 178.58 4.45 178.72 4.45C178.86 4.45 179.02 4.47 179.19 4.47L179.19 13.26C179.02 13.26 178.86 13.27 178.72 13.27C178.58 13.27 178.49 13.29 178.42 13.29L178.28 13.29C178.09 13.30 178.00 13.38 178.00 13.54L178.00 13.82L179.19 13.82L179.90 13.82L181.08 13.82L181.08 13.54C181.08 13.38 180.99 13.30 180.81 13.29L180.67 13.29C180.60 13.29 180.50 13.27 180.36 13.27C180.22 13.27 180.07 13.26 179.90 13.26L179.90 9.07L186.10 9.07L186.10 13.26C185.93 13.26 185.79 13.27 185.65 13.27C185.51 13.27 185.40 13.29 185.33 13.29L185.21 13.29C185.02 13.30 184.93 13.38 184.93 13.54L184.93 13.82L186.10 13.82L186.83 13.82L188.01 13.82L188.01 13.54C188.01 13.38 187.91 13.30 187.73 13.29L187.60 13.29C187.53 13.29 187.42 13.27 187.28 13.27C187.14 13.27 187.00 13.26 186.83 13.26L186.83 4.47C187.00 4.47 187.14 4.45 187.28 4.45C187.42 4.45 187.53 4.44 187.60 4.44ZM207.91 3.92L206.72 3.92L206.72 4.19C206.72 4.34 206.82 4.42 207.00 4.44L207.14 4.44C207.21 4.44 207.31 4.45 207.45 4.45C207.59 4.45 207.75 4.47 207.91 4.47L207.91 13.26C207.75 13.26 207.59 13.27 207.45 13.27C207.31 13.27 207.21 13.29 207.14 13.29L207.00 13.29C206.82 13.30 206.74 13.38 206.74 13.54L206.74 13.82L207.91 13.82L213.85 13.82L213.85 13.22L213.85 11.76L213.50 11.76C213.30 11.76 213.22 11.89 213.21 12.11C213.21 12.14 213.19 12.19 213.19 12.29C213.19 12.39 213.19 12.53 213.18 12.74C213.16 12.95 213.15 13.09 213.15 13.22L208.63 13.22L208.63 9.09L212.58 9.09L212.58 8.51L208.63 8.51L208.63 4.51L213.15 4.51C213.18 5.12 213.21 5.50 213.21 5.63C213.22 5.85 213.30 5.96 213.50 5.96L213.85 5.96L213.85 4.51L213.85 3.92ZM231.73 13.22L231.27 13.17L227.49 3.91L226.77 3.91L222.98 13.17L222.53 13.22C222.35 13.23 222.26 13.33 222.26 13.50L222.26 13.82L222.71 13.82L223.01 13.82L223.26 13.82L223.36 13.82L224.67 13.82L224.67 13.50C224.67 13.31 224.56 13.23 224.35 13.22C224.34 13.22 224.31 13.20 224.27 13.20C224.22 13.20 224.17 13.19 224.07 13.19C223.97 13.19 223.85 13.19 223.71 13.17L224.69 10.75L224.76 10.57L229.49 10.57L229.56 10.75L230.54 13.17C230.40 13.19 230.29 13.19 230.19 13.19C230.09 13.19 230.02 13.20 229.98 13.20C229.94 13.20 229.91 13.22 229.89 13.22C229.68 13.23 229.57 13.31 229.57 13.50L229.57 13.82L230.89 13.82L230.99 13.82L231.25 13.82L231.53 13.82L231.99 13.82L231.99 13.50C231.99 13.33 231.91 13.23 231.73 13.22ZM226.93 5.22C226.95 5.14 227.00 5.04 227.02 4.94C227.05 4.84 227.09 4.75 227.12 4.63C227.15 4.75 227.19 4.84 227.22 4.94C227.25 5.04 227.29 5.12 227.32 5.21L229.28 10.04L224.98 10.04ZM245.95 9.91C245.81 9.65 245.62 9.39 245.38 9.21C245.14 9.03 244.89 8.88 244.59 8.75C244.30 8.62 243.98 8.51 243.67 8.41C243.36 8.32 243.05 8.20 242.76 8.11C242.47 7.99 242.20 7.87 241.96 7.71C241.72 7.56 241.54 7.38 241.40 7.15C241.26 6.93 241.18 6.65 241.18 6.31C241.18 6.06 241.23 5.82 241.33 5.59C241.43 5.35 241.57 5.15 241.75 4.97C241.93 4.79 242.16 4.65 242.44 4.55C242.72 4.45 243.03 4.40 243.39 4.40C244.06 4.40 244.68 4.51 245.24 4.75C245.28 5.54 245.31 5.99 245.31 6.06C245.32 6.29 245.41 6.41 245.60 6.41L245.94 6.41L245.94 4.38C245.06 4.00 244.22 3.81 243.39 3.81C242.93 3.81 242.52 3.88 242.16 4.02C241.79 4.16 241.50 4.34 241.26 4.58C241.02 4.82 240.83 5.08 240.70 5.39C240.58 5.70 240.52 6.02 240.52 6.36C240.52 6.78 240.59 7.14 240.73 7.42C240.87 7.70 241.07 7.92 241.30 8.12C241.54 8.32 241.79 8.46 242.09 8.58C242.38 8.71 242.70 8.82 243.01 8.92C243.32 9.02 243.61 9.11 243.92 9.21C244.22 9.31 244.48 9.45 244.72 9.60C244.96 9.76 245.14 9.94 245.28 10.16C245.42 10.39 245.49 10.68 245.49 11.03C245.49 11.35 245.43 11.66 245.32 11.94C245.21 12.22 245.06 12.46 244.85 12.67C244.64 12.88 244.37 13.05 244.06 13.16C243.75 13.29 243.40 13.33 243.01 13.33C242.23 13.33 241.57 13.20 241.04 12.95C241.02 12.75 241.02 12.54 241.01 12.32C241.00 12.10 241.00 11.91 240.98 11.76C240.97 11.61 240.97 11.52 240.97 11.51C240.95 11.28 240.86 11.17 240.66 11.17L240.32 11.17L240.32 13.02L240.32 13.20L240.32 13.38C241.18 13.75 242.06 13.93 242.98 13.93C243.49 13.93 243.94 13.85 244.33 13.69C244.72 13.54 245.06 13.31 245.32 13.05C245.59 12.78 245.81 12.46 245.95 12.10C246.09 11.73 246.16 11.34 246.16 10.92C246.16 10.51 246.09 10.18 245.95 9.91ZM255.61 3.92L254.42 3.92L254.42 4.19C254.42 4.34 254.52 4.42 254.70 4.44L254.84 4.44C254.91 4.44 255.01 4.45 255.15 4.45C255.29 4.45 255.44 4.47 255.61 4.47L255.61 13.26C255.44 13.26 255.29 13.27 255.15 13.27C255.01 13.27 254.91 13.29 254.84 13.29L254.70 13.29C254.52 13.30 254.44 13.38 254.44 13.54L254.44 13.82L255.61 13.82L261.55 13.82L261.55 13.22L261.55 11.76L261.20 11.76C261.00 11.76 260.92 11.89 260.90 12.11C260.90 12.14 260.89 12.19 260.89 12.29C260.89 12.39 260.89 12.53 260.88 12.74C260.86 12.95 260.85 13.09 260.85 13.22L256.33 13.22L256.33 9.09L260.27 9.09L260.27 8.51L256.33 8.51L256.33 4.51L260.85 4.51C260.88 5.12 260.90 5.50 260.90 5.63C260.92 5.85 261.00 5.96 261.20 5.96L261.55 5.96L261.55 4.51L261.55 3.92Z"></path></g></svg>