<svg data-v-fde0c5aa="" xmlns="http://www.w3.org/2000/svg" viewBox="0 0 300 300" class="font"><!----><defs data-v-fde0c5aa=""><!----></defs><rect data-v-fde0c5aa="" fill="#F3EBEF" x="0" y="0" width="300px" height="300px" class="logo-background-square"></rect><defs data-v-fde0c5aa=""><linearGradient data-v-fde0c5aa="" gradientTransform="rotate(25)" id="3ccb4f11-5d68-4518-9d3f-f03b3fd3ba1f" x1="0%" y1="0%" x2="100%" y2="0%"><stop data-v-fde0c5aa="" offset="0%" stop-color="#90185D" stop-opacity="1"></stop><stop data-v-fde0c5aa="" offset="100%" stop-color="#AEAFA6" stop-opacity="1"></stop></linearGradient></defs><g data-v-fde0c5aa="" id="5a4d86de-4708-42b6-8f56-eae064266225" fill="url(#3ccb4f11-5d68-4518-9d3f-f03b3fd3ba1f)" transform="matrix(6.9841274070211385,0,0,6.9841274070211385,30.431745419078126,89.86666375821211)"><path d="M4.13 4.20Q5.21 4.20 5.97 4.45Q6.73 4.69 7.32 5.77Q7.91 6.85 7.91 9.10L7.91 9.10Q7.91 11.35 7.32 12.43Q6.73 13.51 5.97 13.76Q5.21 14 4.13 14L4.13 14L1.37 14L1.37 4.20L4.13 4.20ZM4.17 12.67Q4.98 12.67 5.43 12.36Q5.88 12.05 6.08 11.29Q6.29 10.53 6.29 9.10L6.29 9.10Q6.29 7.67 6.08 6.91Q5.88 6.15 5.43 5.84Q4.98 5.53 4.17 5.53L4.17 5.53L2.94 5.53L2.94 12.67L4.17 12.67ZM12.64 14.15Q11.23 14.15 10.29 13.27Q9.35 12.38 9.35 10.49L9.35 10.49Q9.35 9.21 9.81 8.39Q10.26 7.57 11.00 7.20Q11.75 6.83 12.64 6.83L12.64 6.83Q13.54 6.83 14.27 7.20Q15.01 7.57 15.46 8.39Q15.92 9.21 15.92 10.49L15.92 10.49Q15.92 11.77 15.46 12.59Q15.01 13.41 14.27 13.78Q13.54 14.15 12.64 14.15L12.64 14.15ZM12.64 12.81Q13.30 12.81 13.78 12.27Q14.27 11.73 14.27 10.49L14.27 10.49Q14.27 9.25 13.78 8.71Q13.30 8.18 12.64 8.18L12.64 8.18Q11.97 8.18 11.49 8.71Q11.00 9.24 11.00 10.49L11.00 10.49Q11.00 11.73 11.49 12.27Q11.97 12.81 12.64 12.81L12.64 12.81ZM11.16 5.03Q10.75 5.03 10.46 4.75Q10.18 4.47 10.18 4.06L10.18 4.06Q10.18 3.64 10.46 3.35Q10.75 3.07 11.16 3.07L11.16 3.07Q11.56 3.07 11.84 3.35Q12.12 3.64 12.12 4.06L12.12 4.06Q12.12 4.47 11.84 4.75Q11.56 5.03 11.16 5.03L11.16 5.03ZM14.08 5.03Q13.68 5.03 13.40 4.75Q13.12 4.47 13.12 4.06L13.12 4.06Q13.12 3.64 13.40 3.35Q13.68 3.07 14.08 3.07L14.08 3.07Q14.49 3.07 14.78 3.35Q15.06 3.64 15.06 4.06L15.06 4.06Q15.06 4.47 14.78 4.75Q14.49 5.03 14.08 5.03L14.08 5.03ZM22.39 7L24.02 7L22.32 14L19.74 14L18.03 7L19.67 7L20.89 12.67L21.17 12.67L22.39 7ZM29.78 6.83Q31.28 6.83 32.07 7.82Q32.87 8.81 32.87 10.51L32.87 10.51Q32.87 10.81 32.86 10.95L32.86 10.95L28.04 10.95Q28.11 11.96 28.55 12.38Q28.99 12.81 29.75 12.81L29.75 12.81Q30.80 12.81 31.33 11.94L31.33 11.94L32.66 12.67Q32.20 13.41 31.42 13.78Q30.63 14.15 29.74 14.15L29.74 14.15Q28.81 14.15 28.06 13.76Q27.31 13.37 26.87 12.54Q26.43 11.72 26.43 10.49L26.43 10.49Q26.43 9.24 26.88 8.42Q27.33 7.60 28.08 7.22Q28.84 6.83 29.78 6.83L29.78 6.83ZM28.08 9.74L31.28 9.74Q31.21 8.96 30.84 8.56Q30.46 8.16 29.75 8.16L29.75 8.16Q29.08 8.16 28.64 8.53Q28.21 8.89 28.08 9.74L28.08 9.74Z"></path></g><!----><!----></svg>