<svg data-v-423bf9ae="" xmlns="http://www.w3.org/2000/svg" viewBox="0 0 189.82599983523008 60" class="font"><!----><!----><!----><g data-v-423bf9ae="" id="e352327e-3bdf-4070-9c8b-99d98154a249" fill="black" transform="matrix(6.1412484328310715,0,0,6.1412484328310715,-7.062435958186924,-18.669394047862106)"><path d="M9.44 7.76L9.44 7.76Q9.44 9.25 8.86 10.37Q8.28 11.48 7.21 12.08Q6.15 12.67 4.75 12.67L4.75 12.67L1.15 12.67L1.15 3.04L4.33 3.04Q6.78 3.04 8.11 4.27Q9.44 5.50 9.44 7.76ZM8.13 7.76L8.13 7.76Q8.13 5.97 7.15 5.03Q6.17 4.09 4.31 4.09L4.31 4.09L2.45 4.09L2.45 11.63L4.60 11.63Q5.66 11.63 6.46 11.16Q7.27 10.70 7.70 9.82Q8.13 8.95 8.13 7.76ZM17.31 8.97L17.31 8.97Q17.31 10.91 16.45 11.86Q15.60 12.81 13.97 12.81L13.97 12.81Q12.35 12.81 11.53 11.82Q10.70 10.83 10.70 8.97L10.70 8.97Q10.70 5.14 14.01 5.14L14.01 5.14Q15.71 5.14 16.51 6.07Q17.31 7.01 17.31 8.97ZM16.02 8.97L16.02 8.97Q16.02 7.44 15.56 6.74Q15.11 6.05 14.03 6.05L14.03 6.05Q12.95 6.05 12.47 6.76Q11.99 7.46 11.99 8.97L11.99 8.97Q11.99 10.43 12.47 11.17Q12.94 11.90 13.96 11.90L13.96 11.90Q15.07 11.90 15.54 11.19Q16.02 10.48 16.02 8.97ZM15.93 4.34L14.82 4.34L14.82 3.08L15.93 3.08L15.93 4.34ZM13.25 4.34L12.13 4.34L12.13 3.08L13.25 3.08L13.25 4.34ZM24.85 5.28L22.09 12.67L20.63 12.67L17.94 5.28L19.26 5.28L20.88 10.09Q20.97 10.36 21.36 11.71L21.36 11.71L21.59 10.91L21.86 10.10L23.54 5.28L24.85 5.28ZM32.06 9.24L26.78 9.24Q26.78 10.51 27.31 11.20Q27.84 11.89 28.85 11.89L28.85 11.89Q29.65 11.89 30.13 11.57Q30.61 11.25 30.78 10.75L30.78 10.75L31.86 11.06Q31.20 12.81 28.85 12.81L28.85 12.81Q27.21 12.81 26.35 11.83Q25.49 10.86 25.49 8.93L25.49 8.93Q25.49 7.10 26.35 6.12Q27.21 5.14 28.80 5.14L28.80 5.14Q32.06 5.14 32.06 9.07L32.06 9.07L32.06 9.24ZM26.80 8.29L30.79 8.29Q30.69 7.12 30.19 6.59Q29.70 6.05 28.78 6.05L28.78 6.05Q27.88 6.05 27.36 6.65Q26.84 7.25 26.80 8.29L26.80 8.29Z"></path></g><!----><!----></svg>