<svg data-v-423bf9ae="" xmlns="http://www.w3.org/2000/svg" viewBox="0 0 329 90" class="iconLeft"><!----><!----><!----><g data-v-423bf9ae="" id="2b6428e1-30b4-4c81-9c2e-637a5eb95e5a" fill="white" transform="matrix(5.952380997433594,0,0,5.952380997433594,146.51245282242357,-15.595238008917228)"><path d="M2.14 15.02L4.13 15.02C6.80 15.02 8.37 13.54 8.37 10.04C8.37 6.76 6.80 5.14 4.05 5.14C3.14 5.14 1.75 5.15 0.98 5.25C1.19 5.80 1.16 6.64 1.16 7.18L1.18 14.17C1.18 14.70 1.54 15.02 2.14 15.02ZM2.83 14.41L2.81 5.75L4.05 5.75C5.73 5.75 6.54 7.08 6.54 10.15C6.54 13.26 5.73 14.41 4.05 14.41ZM11.69 6.83C12.12 6.83 12.47 6.47 12.47 6.03C12.47 5.59 12.12 5.24 11.69 5.24C11.24 5.24 10.88 5.59 10.88 6.03C10.88 6.47 11.24 6.83 11.69 6.83ZM14.27 6.83C14.70 6.83 15.06 6.47 15.06 6.03C15.06 5.59 14.70 5.24 14.27 5.24C13.83 5.24 13.47 5.59 13.47 6.03C13.47 6.47 13.83 6.83 14.27 6.83ZM12.95 15.22C15.08 15.22 16.32 13.80 16.32 11.44C16.32 9.04 15.08 7.64 12.95 7.64C10.82 7.64 9.59 9.04 9.59 11.44C9.59 13.80 10.82 15.22 12.95 15.22ZM12.95 14.62C11.87 14.62 11.34 13.52 11.34 11.44C11.34 9.32 11.87 8.23 12.95 8.23C14.03 8.23 14.56 9.32 14.56 11.44C14.56 13.52 14.03 14.62 12.95 14.62ZM22.68 7.69C22.29 7.69 22.06 7.76 21.84 7.85C21.91 7.95 21.94 8.08 21.94 8.27C21.94 8.47 21.90 8.65 21.87 8.85L20.41 14.20L18.76 8.33C18.66 7.90 18.30 7.69 17.79 7.69C17.29 7.69 17.01 7.88 16.86 8.06C17.07 8.27 17.19 8.67 17.26 8.88L19.25 14.66C19.39 15.08 19.74 15.22 20.13 15.22C20.50 15.22 20.86 15.13 21.24 14.97L23.41 9.25C23.53 8.95 23.58 8.61 23.58 8.39C23.59 7.90 23.31 7.69 22.68 7.69ZM30.27 13.06C29.96 13.72 29.25 14.17 28.22 14.17C27.03 14.17 26.22 13.57 26.10 11.79C26.59 11.84 27.05 11.86 27.51 11.86C29.36 11.86 30.58 11.12 30.58 9.73C30.58 8.34 29.37 7.64 27.80 7.64C25.54 7.64 24.32 9.09 24.32 11.42C24.32 13.86 25.66 15.22 27.78 15.22C29.05 15.22 30.03 14.73 30.38 13.83C30.59 13.34 30.45 13.15 30.27 13.06ZM27.75 8.23C28.28 8.23 28.81 8.48 28.81 9.46C28.81 11.03 27.62 11.24 26.63 11.23C26.43 11.23 26.24 11.21 26.07 11.20C26.07 9.32 26.70 8.23 27.75 8.23Z"></path></g><!----><g data-v-423bf9ae="" id="ed611d9d-747c-45a1-92b1-581c5ad335be" transform="matrix(1.3234385384519765,0,0,1.3234385384519765,0.8277166923267174,-0.000428770071657425)" stroke="none" fill="white"><circle cx="13.335" cy="44.095" r="2.02"></circle><path d="M98.97 48.211c-11.74-4.688-23.077 1.095-35.083 7.217-6.003 3.062-12.213 6.227-18.636 8.122-17.95 5.3-32.268-9.386-32.477-9.604a1.637 1.637 0 00-2.373 2.253c.537.565 11.416 11.807 26.758 11.807 2.863 0 5.882-.392 9.019-1.317 6.713-1.982 13.061-5.217 19.198-8.347C76.702 52.569 87.4 47.114 97.757 51.25a1.635 1.635 0 101.213-3.039zM29.562 36.489c-3.855 4.445-5.504 9.982-3.599 13.961a1.636 1.636 0 102.953-1.413c-1.924-4.019 2.024-11.062 8.124-14.493 1.566-.881 3.242-1.795 5.017-2.763 9.928-5.417 22.045-12.029 27.322-19.612 2.002 4.059 4.604 13.154-5.132 22.89a1.636 1.636 0 102.313 2.315c2.798-2.8 4.696-5.577 5.932-8.243 1.244 2.975 2.276 8.664-3.796 14.737a1.632 1.632 0 000 2.312c.318.32.738.48 1.156.48.419 0 .838-.16 1.156-.48 10.534-10.533 3.267-20.697 2.919-21.168 2.293-9.615-3.189-16.942-3.268-17.044a1.636 1.636 0 00-2.776.299c-3.631 7.673-16.808 14.863-27.396 20.64a466.036 466.036 0 00-5.053 2.783 22.171 22.171 0 00-3.253 2.239 48.382 48.382 0 00-7.155-2.036c-.976-2.34.271-6.7 2.775-9.291l.421-.436c4.872-5.035 11.232-11.609 13.897-17.017 1.418 2.694 2.771 7.551-.609 13.784a1.638 1.638 0 002.878 1.561C50.803 8.66 42.887.558 42.807.477a1.638 1.638 0 00-2.764.86c-.901 4.837-8.888 13.092-14.172 18.555l-.422.436c-2.645 2.736-4.454 7.326-3.929 11.021-5.788-.615-12.24.206-15.232 5.824-1.3.372-3.866 1.3-5.811 3.245a1.635 1.635 0 102.314 2.313c1.934-1.935 4.916-2.545 4.941-2.55a1.639 1.639 0 001.184-.938c3.367-7.533 15.794-4.34 20.646-2.754z"></path></g><!----></svg>