<svg data-v-423bf9ae="" xmlns="http://www.w3.org/2000/svg" viewBox="0 0 176.19047979468755 60" class="font"><!----><!----><!----><g data-v-423bf9ae="" id="3485dedb-cb5f-4dd1-8ebe-14ac2704b61e" fill="white" transform="matrix(5.952380997433594,0,0,5.952380997433594,-5.833334225916275,-30.595238008917228)"><path d="M2.14 15.02L4.13 15.02C6.80 15.02 8.37 13.54 8.37 10.04C8.37 6.76 6.80 5.14 4.05 5.14C3.14 5.14 1.75 5.15 0.98 5.25C1.19 5.80 1.16 6.64 1.16 7.18L1.18 14.17C1.18 14.70 1.54 15.02 2.14 15.02ZM2.83 14.41L2.81 5.75L4.05 5.75C5.73 5.75 6.54 7.08 6.54 10.15C6.54 13.26 5.73 14.41 4.05 14.41ZM11.69 6.83C12.12 6.83 12.47 6.47 12.47 6.03C12.47 5.59 12.12 5.24 11.69 5.24C11.24 5.24 10.88 5.59 10.88 6.03C10.88 6.47 11.24 6.83 11.69 6.83ZM14.27 6.83C14.70 6.83 15.06 6.47 15.06 6.03C15.06 5.59 14.70 5.24 14.27 5.24C13.83 5.24 13.47 5.59 13.47 6.03C13.47 6.47 13.83 6.83 14.27 6.83ZM12.95 15.22C15.08 15.22 16.32 13.80 16.32 11.44C16.32 9.04 15.08 7.64 12.95 7.64C10.82 7.64 9.59 9.04 9.59 11.44C9.59 13.80 10.82 15.22 12.95 15.22ZM12.95 14.62C11.87 14.62 11.34 13.52 11.34 11.44C11.34 9.32 11.87 8.23 12.95 8.23C14.03 8.23 14.56 9.32 14.56 11.44C14.56 13.52 14.03 14.62 12.95 14.62ZM22.68 7.69C22.29 7.69 22.06 7.76 21.84 7.85C21.91 7.95 21.94 8.08 21.94 8.27C21.94 8.47 21.90 8.65 21.87 8.85L20.41 14.20L18.76 8.33C18.66 7.90 18.30 7.69 17.79 7.69C17.29 7.69 17.01 7.88 16.86 8.06C17.07 8.27 17.19 8.67 17.26 8.88L19.25 14.66C19.39 15.08 19.74 15.22 20.13 15.22C20.50 15.22 20.86 15.13 21.24 14.97L23.41 9.25C23.53 8.95 23.58 8.61 23.58 8.39C23.59 7.90 23.31 7.69 22.68 7.69ZM30.27 13.06C29.96 13.72 29.25 14.17 28.22 14.17C27.03 14.17 26.22 13.57 26.10 11.79C26.59 11.84 27.05 11.86 27.51 11.86C29.36 11.86 30.58 11.12 30.58 9.73C30.58 8.34 29.37 7.64 27.80 7.64C25.54 7.64 24.32 9.09 24.32 11.42C24.32 13.86 25.66 15.22 27.78 15.22C29.05 15.22 30.03 14.73 30.38 13.83C30.59 13.34 30.45 13.15 30.27 13.06ZM27.75 8.23C28.28 8.23 28.81 8.48 28.81 9.46C28.81 11.03 27.62 11.24 26.63 11.23C26.43 11.23 26.24 11.21 26.07 11.20C26.07 9.32 26.70 8.23 27.75 8.23Z"></path></g><!----><!----></svg>