<svg data-v-fde0c5aa="" xmlns="http://www.w3.org/2000/svg" viewBox="0 0 300 300" class="iconLeftSlogan"><!----><defs data-v-fde0c5aa=""><!----></defs><rect data-v-fde0c5aa="" fill="#E9E6E6" x="0" y="0" width="300px" height="300px" class="logo-background-square"></rect><defs data-v-fde0c5aa=""><!----></defs><g data-v-fde0c5aa="" id="aefbafcf-7326-47b7-88e4-a2ca68804fef" fill="#2B2625" transform="matrix(3.1413651556853126,0,0,3.1413651556853126,149.00041483637077,112.02614262953765)"><path d="M5.24 3.78L1.48 3.78L1.48 14L5.24 14C8.15 14 10.46 11.94 10.46 8.89C10.46 5.87 8.16 3.78 5.24 3.78ZM5.24 13.06L2.58 13.06L2.58 4.72L5.24 4.72C7.41 4.72 9.34 6.23 9.34 8.89C9.34 11.54 7.41 13.06 5.24 13.06ZM14.43 5.08C14.81 5.08 15.15 4.76 15.15 4.35C15.15 3.98 14.81 3.67 14.43 3.67C14.04 3.67 13.73 3.98 13.73 4.35C13.73 4.76 14.04 5.08 14.43 5.08ZM16.93 5.08C17.32 5.08 17.64 4.76 17.64 4.35C17.64 3.98 17.32 3.67 16.93 3.67C16.53 3.67 16.21 3.98 16.21 4.35C16.21 4.76 16.53 5.08 16.93 5.08ZM11.90 10.33C11.90 12.45 13.48 14.14 15.71 14.14C17.92 14.14 19.50 12.45 19.50 10.33C19.50 8.25 17.92 6.58 15.71 6.58C13.48 6.58 11.90 8.25 11.90 10.33ZM12.94 10.36C12.94 8.76 14.08 7.49 15.71 7.49C17.32 7.49 18.45 8.76 18.45 10.36C18.45 11.94 17.32 13.23 15.71 13.23C14.08 13.23 12.94 11.94 12.94 10.36ZM26.47 6.72L23.94 13.15L21.42 6.72L20.23 6.72L23.37 14L24.50 14L27.62 6.72ZM32.00 6.58C29.96 6.58 28.38 8.19 28.38 10.33C28.38 12.50 29.92 14.14 32.02 14.14C33.68 14.14 34.94 13.06 35.18 11.76L34.19 11.76C33.98 12.66 33.12 13.23 32.02 13.23C30.58 13.23 29.51 12.15 29.40 10.63L35.22 10.63L35.32 10.54C35.50 8.41 34.02 6.58 32.00 6.58ZM29.44 9.74C29.69 8.39 30.76 7.48 31.99 7.48C33.28 7.48 34.17 8.48 34.31 9.76Z"></path></g><defs data-v-fde0c5aa=""><linearGradient data-v-fde0c5aa="" gradientTransform="rotate(25)" id="f2e576cb-c4fe-485d-a420-66ef96ed9e23" x1="0%" y1="0%" x2="100%" y2="0%"><stop data-v-fde0c5aa="" offset="0%" stop-color="#6A4F4C" stop-opacity="1"></stop><stop data-v-fde0c5aa="" offset="100%" stop-color="#A0A29B" stop-opacity="1"></stop></linearGradient></defs><g data-v-fde0c5aa="" id="3ec9329a-7533-45e7-b4df-90c8d1d70e16" stroke="none" fill="url(#f2e576cb-c4fe-485d-a420-66ef96ed9e23)" transform="matrix(1.006481609884061,0,0,1.006481609884061,40.00190732693487,115.7759412831956)"><circle cx="13.335" cy="44.095" r="2.02"></circle><path d="M98.97 48.211c-11.74-4.688-23.077 1.095-35.083 7.217-6.003 3.062-12.213 6.227-18.636 8.122-17.95 5.3-32.268-9.386-32.477-9.604a1.637 1.637 0 00-2.373 2.253c.537.565 11.416 11.807 26.758 11.807 2.863 0 5.882-.392 9.019-1.317 6.713-1.982 13.061-5.217 19.198-8.347C76.702 52.569 87.4 47.114 97.757 51.25a1.635 1.635 0 101.213-3.039zM29.562 36.489c-3.855 4.445-5.504 9.982-3.599 13.961a1.636 1.636 0 102.953-1.413c-1.924-4.019 2.024-11.062 8.124-14.493 1.566-.881 3.242-1.795 5.017-2.763 9.928-5.417 22.045-12.029 27.322-19.612 2.002 4.059 4.604 13.154-5.132 22.89a1.636 1.636 0 102.313 2.315c2.798-2.8 4.696-5.577 5.932-8.243 1.244 2.975 2.276 8.664-3.796 14.737a1.632 1.632 0 000 2.312c.318.32.738.48 1.156.48.419 0 .838-.16 1.156-.48 10.534-10.533 3.267-20.697 2.919-21.168 2.293-9.615-3.189-16.942-3.268-17.044a1.636 1.636 0 00-2.776.299c-3.631 7.673-16.808 14.863-27.396 20.64a466.036 466.036 0 00-5.053 2.783 22.171 22.171 0 00-3.253 2.239 48.382 48.382 0 00-7.155-2.036c-.976-2.34.271-6.7 2.775-9.291l.421-.436c4.872-5.035 11.232-11.609 13.897-17.017 1.418 2.694 2.771 7.551-.609 13.784a1.638 1.638 0 002.878 1.561C50.803 8.66 42.887.558 42.807.477a1.638 1.638 0 00-2.764.86c-.901 4.837-8.888 13.092-14.172 18.555l-.422.436c-2.645 2.736-4.454 7.326-3.929 11.021-5.788-.615-12.24.206-15.232 5.824-1.3.372-3.866 1.3-5.811 3.245a1.635 1.635 0 102.314 2.313c1.934-1.935 4.916-2.545 4.941-2.55a1.639 1.639 0 001.184-.938c3.367-7.533 15.794-4.34 20.646-2.754z"></path></g><defs data-v-fde0c5aa=""><!----></defs><g data-v-fde0c5aa="" id="1ca28362-b7a1-46ad-b6fb-2cc894a1e5eb" fill="#2B2625" transform="matrix(0.4117001169944525,0,0,0.4117001169944525,153.33674324171233,165.31698868493905)"><path d="M0.76 8.02L0.76 8.02Q0.76 6.86 1.23 5.83L1.23 5.83Q1.70 4.85 2.45 4.27L2.45 4.27Q3.19 3.69 4.09 3.37Q4.98 3.05 5.82 3.05L5.82 3.05Q6.69 3.05 7.36 3.16L7.36 3.16Q7.99 3.26 8.29 3.37L8.29 3.37Q8.59 3.48 8.63 3.48L8.63 3.48Q8.80 3.48 8.82 3.41L8.82 3.41Q8.85 3.33 8.85 3.09L8.85 3.09L8.85 2.97L9.38 2.97Q9.42 4.30 9.55 5.64L9.55 5.64L9.04 5.65Q9.02 5.40 9.00 5.26L9.00 5.26Q9.00 5.20 9.00 5.13Q8.99 5.07 8.98 5.02Q8.98 4.98 8.98 4.95L8.98 4.95Q8.95 4.84 8.95 4.74L8.95 4.74Q8.95 4.68 8.91 4.59L8.91 4.59Q8.91 4.57 8.88 4.55Q8.85 4.52 8.85 4.50L8.85 4.50Q8.82 4.44 8.75 4.41L8.75 4.41Q8.71 4.38 8.68 4.37Q8.65 4.36 8.63 4.35L8.63 4.35Q8.61 4.35 8.59 4.33Q8.57 4.31 8.52 4.29Q8.48 4.27 8.44 4.25L8.44 4.25Q8.22 4.16 8.19 4.14L8.19 4.14Q7.84 3.96 7.20 3.83L7.20 3.83Q6.53 3.71 5.87 3.71L5.87 3.71Q4.14 3.71 3.05 4.84L3.05 4.84Q1.94 5.99 1.95 7.62L1.95 7.62Q1.95 9.35 3.17 10.69L3.17 10.69Q4.37 12.02 6.19 12.02L6.19 12.02Q7.19 12.02 8.13 11.49L8.13 11.49Q9.08 10.94 9.11 10.58L9.11 10.58L9.15 9.41L9.65 9.41L9.56 11.45Q9.50 11.49 9.37 11.57L9.37 11.57Q9.31 11.60 8.85 11.85L8.85 11.85Q8.47 12.05 8.03 12.23L8.03 12.23Q7.66 12.39 7.01 12.51L7.01 12.51Q6.41 12.63 5.84 12.64L5.84 12.64Q3.46 12.64 2.10 11.39L2.10 11.39Q0.76 10.14 0.76 8.02ZM18.06 7.83L18.06 7.83Q18.06 6.62 18.46 5.68L18.46 5.68Q18.88 4.72 19.57 4.12L19.57 4.12Q20.26 3.51 21.12 3.19L21.12 3.19Q21.96 2.88 22.91 2.88L22.91 2.88Q24.17 2.88 25.22 3.40L25.22 3.40Q26.30 3.93 27.02 5.07L27.02 5.07Q27.71 6.17 27.72 7.75L27.72 7.75Q27.72 8.70 27.41 9.54Q27.10 10.38 26.50 11.10Q25.89 11.81 24.96 12.22L24.96 12.22Q23.99 12.63 22.80 12.64L22.80 12.64Q21.67 12.64 20.73 12.23Q19.80 11.83 19.24 11.14L19.24 11.14Q18.66 10.45 18.37 9.60L18.37 9.60Q18.06 8.72 18.06 7.83ZM19.32 7.38L19.32 7.38Q19.32 8.52 19.75 9.60L19.75 9.60Q20.15 10.64 21.08 11.33L21.08 11.33Q21.99 12.03 23.18 12.04L23.18 12.04Q24.55 12.04 25.49 11.01L25.49 11.01Q26.44 9.97 26.44 8.10L26.44 8.10Q26.44 5.99 25.28 4.72L25.28 4.72Q24.13 3.46 22.62 3.45L22.62 3.45Q22.10 3.45 21.56 3.65Q21.01 3.85 20.51 4.25L20.51 4.25Q19.96 4.68 19.64 5.48L19.64 5.48Q19.32 6.27 19.32 7.38ZM35.85 3.64L35.83 3.08L38.01 3.08L43.74 10.48L43.74 4.14Q43.74 3.81 43.59 3.72Q43.44 3.64 42.98 3.64L42.98 3.64L42.49 3.64L42.51 3.08L45.49 3.08L45.49 3.64L45.17 3.64Q44.71 3.64 44.56 3.75Q44.41 3.86 44.41 4.25L44.41 4.25L44.41 12.32L44.41 12.47Q44.41 12.52 44.39 12.57Q44.38 12.61 44.34 12.64L44.34 12.64Q44.33 12.65 44.28 12.65L44.28 12.65L44.08 12.65L44.02 12.65L44.00 12.65L43.97 12.64Q43.94 12.64 43.93 12.63Q43.91 12.61 43.91 12.60Q43.91 12.58 43.90 12.57L43.90 12.57Q43.87 12.54 43.85 12.50L43.85 12.50Q43.83 12.48 43.81 12.45Q43.79 12.41 43.78 12.40L43.78 12.40L37.67 4.56L37.74 11.22Q37.74 11.67 37.91 11.77L37.91 11.77Q38.06 11.87 38.77 11.87L38.77 11.87L39.01 11.87L39.01 12.41L36.07 12.41L36.07 11.87L36.50 11.87Q36.87 11.87 36.98 11.76L36.98 11.76Q37.08 11.66 37.08 11.25L37.08 11.25L37.08 3.80L36.94 3.64L35.85 3.64ZM53.25 3.64L53.23 3.08L55.41 3.08L61.14 10.48L61.14 4.14Q61.14 3.81 60.99 3.72Q60.83 3.64 60.38 3.64L60.38 3.64L59.88 3.64L59.91 3.08L62.89 3.08L62.89 3.64L62.57 3.64Q62.10 3.64 61.95 3.75Q61.80 3.86 61.80 4.25L61.80 4.25L61.80 12.32L61.80 12.47Q61.80 12.52 61.79 12.57Q61.78 12.61 61.74 12.64L61.74 12.64Q61.73 12.65 61.67 12.65L61.67 12.65L61.48 12.65L61.42 12.65L61.39 12.65L61.37 12.64Q61.34 12.64 61.33 12.63Q61.31 12.61 61.31 12.60Q61.31 12.58 61.30 12.57L61.30 12.57Q61.27 12.54 61.24 12.50L61.24 12.50Q61.23 12.48 61.21 12.45Q61.19 12.41 61.17 12.40L61.17 12.40L55.07 4.56L55.14 11.22Q55.14 11.67 55.30 11.77L55.30 11.77Q55.46 11.87 56.17 11.87L56.17 11.87L56.41 11.87L56.41 12.41L53.47 12.41L53.47 11.87L53.89 11.87Q54.27 11.87 54.38 11.76L54.38 11.76Q54.48 11.66 54.48 11.25L54.48 11.25L54.48 3.80L54.34 3.64L53.25 3.64ZM70.64 3.64L70.63 3.08L77.84 3.08Q77.85 4.14 77.91 5.28L77.91 5.28L77.36 5.30Q77.35 4.66 77.29 4.25L77.29 4.25Q77.25 3.89 77.20 3.80L77.20 3.80Q77.14 3.71 77.03 3.69L77.03 3.69Q76.93 3.68 76.34 3.68L76.34 3.68L73.96 3.68Q73.42 3.68 73.27 3.77L73.27 3.77Q73.15 3.86 73.15 4.33L73.15 4.33L73.15 6.28Q73.15 6.69 73.21 6.76L73.21 6.76Q73.27 6.84 73.62 6.84L73.62 6.84L75.73 6.84Q76.09 6.84 76.17 6.73L76.17 6.73Q76.25 6.63 76.26 6.14L76.26 6.14L76.26 5.61L76.77 5.63L76.77 8.97L76.26 8.97L76.26 8.24Q76.26 7.66 76.19 7.57L76.19 7.57Q76.10 7.46 75.76 7.46L75.76 7.46L73.66 7.46Q73.32 7.46 73.24 7.54Q73.15 7.63 73.15 7.89L73.15 7.89L73.15 11.20Q73.15 11.57 73.24 11.67Q73.32 11.77 73.60 11.77L73.60 11.77Q76.51 11.75 77.04 11.69L77.04 11.69Q77.56 11.63 77.64 11.38L77.64 11.38L77.65 11.36L77.66 11.35L77.88 10.17L78.36 10.25L78.01 12.41L70.91 12.41L70.91 11.87L71.28 11.87Q71.84 11.87 71.92 11.80L71.92 11.80Q72.02 11.72 72.02 11.33L72.02 11.33L72.02 4.24Q72.02 3.82 71.87 3.73L71.87 3.73Q71.70 3.64 71.04 3.64L71.04 3.64L70.64 3.64ZM86.62 8.02L86.62 8.02Q86.62 6.86 87.09 5.83L87.09 5.83Q87.55 4.85 88.31 4.27L88.31 4.27Q89.05 3.69 89.95 3.37Q90.84 3.05 91.68 3.05L91.68 3.05Q92.55 3.05 93.22 3.16L93.22 3.16Q93.85 3.26 94.14 3.37L94.14 3.37Q94.45 3.48 94.49 3.48L94.49 3.48Q94.66 3.48 94.68 3.41L94.68 3.41Q94.71 3.33 94.71 3.09L94.71 3.09L94.71 2.97L95.24 2.97Q95.28 4.30 95.41 5.64L95.41 5.64L94.90 5.65Q94.88 5.40 94.86 5.26L94.86 5.26Q94.86 5.20 94.86 5.13Q94.85 5.07 94.84 5.02Q94.83 4.98 94.83 4.95L94.83 4.95Q94.81 4.84 94.81 4.74L94.81 4.74Q94.81 4.68 94.77 4.59L94.77 4.59Q94.77 4.57 94.74 4.55Q94.71 4.52 94.71 4.50L94.71 4.50Q94.68 4.44 94.61 4.41L94.61 4.41Q94.57 4.38 94.54 4.37Q94.51 4.36 94.49 4.35L94.49 4.35Q94.47 4.35 94.45 4.33Q94.42 4.31 94.38 4.29Q94.34 4.27 94.30 4.25L94.30 4.25Q94.08 4.16 94.05 4.14L94.05 4.14Q93.70 3.96 93.06 3.83L93.06 3.83Q92.39 3.71 91.72 3.71L91.72 3.71Q90.00 3.71 88.91 4.84L88.91 4.84Q87.80 5.99 87.81 7.62L87.81 7.62Q87.81 9.35 89.02 10.69L89.02 10.69Q90.23 12.02 92.05 12.02L92.05 12.02Q93.05 12.02 93.99 11.49L93.99 11.49Q94.94 10.94 94.97 10.58L94.97 10.58L95.01 9.41L95.50 9.41L95.42 11.45Q95.35 11.49 95.22 11.57L95.22 11.57Q95.17 11.60 94.71 11.85L94.71 11.85Q94.33 12.05 93.88 12.23L93.88 12.23Q93.52 12.39 92.87 12.51L92.87 12.51Q92.26 12.63 91.70 12.64L91.70 12.64Q89.32 12.64 87.96 11.39L87.96 11.39Q86.62 10.14 86.62 8.02ZM103.82 5.35L103.32 5.33Q103.44 4.17 103.52 3.08L103.52 3.08L111.60 3.08Q111.52 4.13 111.49 4.53L111.49 4.53Q111.45 5.26 111.43 5.32L111.43 5.32L110.93 5.30Q111.02 4.34 111.02 4.16L111.02 4.16Q111.02 3.88 110.87 3.79L110.87 3.79Q110.70 3.69 110.30 3.69L110.30 3.69L108.69 3.69Q108.19 3.69 108.06 3.79L108.06 3.79Q107.97 3.87 107.96 4.36L107.96 4.36L107.96 11.22Q107.96 11.66 108.10 11.76L108.10 11.76Q108.26 11.87 108.77 11.87L108.77 11.87L109.33 11.87L109.35 12.41L105.66 12.40L105.66 11.87L105.88 11.87Q106.54 11.87 106.69 11.79Q106.83 11.70 106.83 11.28L106.83 11.28L106.83 4.48Q106.83 3.92 106.73 3.80Q106.63 3.69 106.21 3.69L106.21 3.69L104.74 3.69Q104.56 3.69 104.49 3.71Q104.42 3.72 104.31 3.72L104.31 3.72Q104.28 3.72 104.17 3.79L104.17 3.79Q104.08 3.84 104.06 3.86Q104.03 3.88 103.99 3.99L103.99 3.99Q103.96 4.05 103.93 4.14L103.93 4.14Q103.91 4.21 103.89 4.36L103.89 4.36Q103.86 4.59 103.86 4.61L103.86 4.61Q103.86 4.80 103.84 4.95L103.84 4.95Q103.84 5.02 103.84 5.15Q103.83 5.29 103.82 5.35L103.82 5.35ZM129.29 3.64L129.06 3.64L129.06 3.08L132.16 3.08L132.15 3.64L131.84 3.64Q131.01 3.64 131.01 3.94L131.01 3.94Q131.01 4.03 131.04 4.09L131.04 4.09L133.46 10.76L135.78 4.85L135.67 4.57Q135.65 4.52 135.63 4.44Q135.60 4.36 135.58 4.31Q135.56 4.25 135.55 4.22L135.55 4.22Q135.52 4.16 135.43 3.96L135.43 3.96Q135.34 3.80 135.23 3.71L135.23 3.71Q135.15 3.64 134.98 3.64L134.98 3.64L134.29 3.64L134.29 3.08L137.62 3.08L137.62 3.64L136.88 3.64Q136.65 3.64 136.59 3.68L136.59 3.68Q136.52 3.72 136.52 3.86Q136.51 4.00 136.77 4.76L136.77 4.76L138.81 10.72L141.31 4.18Q141.36 4.01 141.36 3.94L141.36 3.94Q141.36 3.75 141.19 3.69L141.19 3.69Q141.03 3.64 140.68 3.64L140.68 3.64L140.31 3.64L140.31 3.08L142.71 3.08L142.72 3.64L142.55 3.64Q142.20 3.64 142.11 3.77L142.11 3.77Q141.98 3.96 141.74 4.60L141.74 4.60L138.65 12.64L138.41 12.64L136.03 5.64L133.31 12.63L133.09 12.63L130.12 4.52Q129.90 3.96 129.74 3.79L129.74 3.79Q129.58 3.63 129.29 3.64L129.29 3.64ZM151.04 3.64L150.45 3.64L150.47 3.08L153.98 3.08L153.98 3.64L153.75 3.64Q153.20 3.64 153.03 3.73L153.03 3.73Q152.89 3.81 152.89 4.28L152.89 4.28L152.89 11.22Q152.89 11.68 153.00 11.77Q153.11 11.87 153.64 11.87L153.64 11.87L154.19 11.87L154.21 12.41L150.62 12.41L150.61 11.87L150.97 11.87Q151.53 11.87 151.65 11.77Q151.76 11.67 151.76 11.25L151.76 11.25L151.76 4.14Q151.76 3.77 151.66 3.71L151.66 3.71Q151.55 3.64 151.04 3.64L151.04 3.64ZM162.22 5.35L161.72 5.33Q161.85 4.17 161.93 3.08L161.93 3.08L170.01 3.08Q169.93 4.13 169.90 4.53L169.90 4.53Q169.86 5.26 169.84 5.32L169.84 5.32L169.34 5.30Q169.42 4.34 169.42 4.16L169.42 4.16Q169.42 3.88 169.28 3.79L169.28 3.79Q169.11 3.69 168.70 3.69L168.70 3.69L167.10 3.69Q166.59 3.69 166.47 3.79L166.47 3.79Q166.37 3.87 166.37 4.36L166.37 4.36L166.37 11.22Q166.37 11.66 166.51 11.76L166.51 11.76Q166.67 11.87 167.18 11.87L167.18 11.87L167.74 11.87L167.75 12.41L164.06 12.40L164.06 11.87L164.28 11.87Q164.95 11.87 165.09 11.79Q165.24 11.70 165.24 11.28L165.24 11.28L165.24 4.48Q165.24 3.92 165.14 3.80Q165.04 3.69 164.62 3.69L164.62 3.69L163.15 3.69Q162.96 3.69 162.89 3.71Q162.83 3.72 162.72 3.72L162.72 3.72Q162.69 3.72 162.57 3.79L162.57 3.79Q162.49 3.84 162.46 3.86Q162.44 3.88 162.39 3.99L162.39 3.99Q162.37 4.05 162.34 4.14L162.34 4.14Q162.31 4.21 162.29 4.36L162.29 4.36Q162.26 4.59 162.26 4.61L162.26 4.61Q162.26 4.80 162.25 4.95L162.25 4.95Q162.25 5.02 162.24 5.15Q162.24 5.29 162.22 5.35L162.22 5.35ZM178.12 3.64L177.75 3.64L177.75 3.08L181.23 3.08L181.23 3.64L180.87 3.64Q180.37 3.64 180.22 3.75L180.22 3.75Q180.08 3.84 180.07 4.25L180.07 4.25L180.07 6.91L184.63 6.91L184.63 4.14Q184.63 3.77 184.53 3.71L184.53 3.71Q184.42 3.64 183.89 3.64L183.89 3.64L183.31 3.64L183.29 3.08L186.85 3.08L186.85 3.64L186.46 3.64Q185.98 3.64 185.87 3.74Q185.76 3.83 185.76 4.22L185.76 4.22L185.76 11.29Q185.76 11.67 185.90 11.77L185.90 11.77Q186.05 11.87 186.60 11.87L186.60 11.87L187.07 11.87L187.06 12.41L183.57 12.41L183.56 11.87L183.97 11.87Q184.43 11.87 184.53 11.77Q184.63 11.67 184.63 11.25L184.63 11.25L184.63 7.58L180.07 7.58L180.07 11.25Q180.07 11.67 180.23 11.77Q180.38 11.87 181.08 11.87L181.08 11.87L181.49 11.87L181.46 12.41L177.88 12.41L177.86 11.87L178.23 11.87Q178.77 11.87 178.84 11.80L178.84 11.80Q178.94 11.70 178.94 11.25L178.94 11.25L178.94 4.09Q178.94 3.76 178.80 3.71L178.80 3.71Q178.63 3.64 178.12 3.64L178.12 3.64ZM204.39 3.64L204.38 3.08L211.59 3.08Q211.61 4.14 211.66 5.28L211.66 5.28L211.11 5.30Q211.10 4.66 211.05 4.25L211.05 4.25Q211.00 3.89 210.95 3.80L210.95 3.80Q210.90 3.71 210.78 3.69L210.78 3.69Q210.68 3.68 210.10 3.68L210.10 3.68L207.72 3.68Q207.17 3.68 207.03 3.77L207.03 3.77Q206.90 3.86 206.90 4.33L206.90 4.33L206.90 6.28Q206.90 6.69 206.96 6.76L206.96 6.76Q207.03 6.84 207.37 6.84L207.37 6.84L209.48 6.84Q209.84 6.84 209.92 6.73L209.92 6.73Q210.01 6.63 210.01 6.14L210.01 6.14L210.01 5.61L210.53 5.63L210.53 8.97L210.01 8.97L210.01 8.24Q210.01 7.66 209.94 7.57L209.94 7.57Q209.86 7.46 209.51 7.46L209.51 7.46L207.41 7.46Q207.07 7.46 206.99 7.54Q206.90 7.63 206.90 7.89L206.90 7.89L206.90 11.20Q206.90 11.57 206.99 11.67Q207.07 11.77 207.35 11.77L207.35 11.77Q210.27 11.75 210.79 11.69L210.79 11.69Q211.31 11.63 211.39 11.38L211.39 11.38L211.40 11.36L211.41 11.35L211.63 10.17L212.11 10.25L211.76 12.41L204.66 12.41L204.66 11.87L205.03 11.87Q205.59 11.87 205.67 11.80L205.67 11.80Q205.77 11.72 205.77 11.33L205.77 11.33L205.77 4.24Q205.77 3.82 205.62 3.73L205.62 3.73Q205.45 3.64 204.79 3.64L204.79 3.64L204.39 3.64ZM220.00 12.41L219.99 11.87L220.16 11.87Q220.55 11.87 220.68 11.73L220.68 11.73Q220.80 11.57 221.14 10.83L221.14 10.83L222.04 8.82L222.62 7.53Q222.89 6.97 222.93 6.86L222.93 6.86Q223.00 6.70 223.05 6.60Q223.10 6.51 223.11 6.45L223.11 6.45L223.21 6.21L224.64 2.74L224.93 2.74Q225.78 4.98 227.97 10.25L227.97 10.25Q228.42 11.34 228.61 11.64L228.61 11.64Q228.75 11.87 229.19 11.87L229.19 11.87L229.40 11.87L229.39 12.41L226.19 12.41L226.21 11.87L226.63 11.87Q227.24 11.87 227.24 11.70L227.24 11.70Q227.24 11.63 227.10 11.27L227.10 11.27L226.06 8.72L222.82 8.72L221.71 11.18Q221.57 11.50 221.57 11.63L221.57 11.63Q221.57 11.79 221.67 11.83Q221.76 11.87 222.15 11.87L222.15 11.87L222.72 11.87L222.72 12.41L220.00 12.41ZM224.50 4.79L223.08 8.10L225.83 8.10L224.50 4.79ZM237.10 10.04L237.10 10.04L237.60 9.98L237.78 10.85Q237.89 11.33 237.96 11.41Q238.03 11.49 238.44 11.64L238.44 11.64Q239.28 11.95 240.17 11.95L240.17 11.95Q240.96 11.95 241.50 11.49L241.50 11.49Q242.03 11.04 242.03 10.26L242.03 10.26Q242.03 9.65 241.58 9.21L241.58 9.21Q241.10 8.76 240.24 8.30L240.24 8.30L239.67 7.98Q238.92 7.55 238.69 7.36L238.69 7.36Q238.33 7.08 238.02 6.59Q237.71 6.10 237.71 5.46L237.71 5.46Q237.71 4.39 238.55 3.68Q239.39 2.97 240.50 2.97L240.50 2.97Q240.78 2.97 241.12 3.04L241.12 3.04Q241.32 3.08 241.66 3.17L241.66 3.17L241.90 3.25Q241.99 3.25 242.03 3.16L242.03 3.16Q242.09 3.05 242.09 2.98L242.09 2.98L242.10 2.88L242.58 2.85L242.79 5.41L242.29 5.43L242.16 4.18Q241.42 3.62 240.26 3.62L240.26 3.62Q239.61 3.62 239.11 4.05L239.11 4.05Q238.63 4.47 238.63 5.12L238.63 5.12Q238.63 5.72 239.08 6.17L239.08 6.17Q239.51 6.60 240.38 7.08L240.38 7.08L241.15 7.50Q242.10 8.03 242.63 8.59Q243.17 9.15 243.17 9.92L243.17 9.92Q243.17 10.99 242.31 11.76L242.31 11.76Q241.45 12.54 239.99 12.54L239.99 12.54Q239.43 12.54 238.93 12.41Q238.42 12.29 238.37 12.29L238.37 12.29Q238.12 12.29 238.12 12.58L238.12 12.58L238.13 12.76L237.65 12.80Q237.59 12.41 237.10 10.04ZM251.36 3.64L251.35 3.08L258.56 3.08Q258.58 4.14 258.63 5.28L258.63 5.28L258.08 5.30Q258.07 4.66 258.02 4.25L258.02 4.25Q257.97 3.89 257.92 3.80L257.92 3.80Q257.87 3.71 257.75 3.69L257.75 3.69Q257.65 3.68 257.07 3.68L257.07 3.68L254.69 3.68Q254.14 3.68 254.00 3.77L254.00 3.77Q253.87 3.86 253.87 4.33L253.87 4.33L253.87 6.28Q253.87 6.69 253.93 6.76L253.93 6.76Q254.00 6.84 254.34 6.84L254.34 6.84L256.45 6.84Q256.81 6.84 256.89 6.73L256.89 6.73Q256.98 6.63 256.98 6.14L256.98 6.14L256.98 5.61L257.50 5.63L257.50 8.97L256.98 8.97L256.98 8.24Q256.98 7.66 256.91 7.57L256.91 7.57Q256.83 7.46 256.48 7.46L256.48 7.46L254.38 7.46Q254.04 7.46 253.96 7.54Q253.87 7.63 253.87 7.89L253.87 7.89L253.87 11.20Q253.87 11.57 253.96 11.67Q254.04 11.77 254.32 11.77L254.32 11.77Q257.24 11.75 257.76 11.69L257.76 11.69Q258.28 11.63 258.36 11.38L258.36 11.38L258.37 11.36L258.38 11.35L258.60 10.17L259.08 10.25L258.73 12.41L251.63 12.41L251.63 11.87L252 11.87Q252.56 11.87 252.64 11.80L252.64 11.80Q252.74 11.72 252.74 11.33L252.74 11.33L252.74 4.24Q252.74 3.82 252.59 3.73L252.59 3.73Q252.42 3.64 251.76 3.64L251.76 3.64L251.36 3.64Z"></path></g></svg>