<svg data-v-423bf9ae="" xmlns="http://www.w3.org/2000/svg" viewBox="0 0 194.0104481531373 60" class="font"><!----><!----><!----><g data-v-423bf9ae="" id="2291a7e5-459d-4419-b68f-7a334e6ba3ed" fill="white" transform="matrix(5.730658879632186,0,0,5.730658879632186,-8.481378437682764,-21.031519002301856)"><path d="M5.24 3.78L1.48 3.78L1.48 14L5.24 14C8.15 14 10.46 11.94 10.46 8.89C10.46 5.87 8.16 3.78 5.24 3.78ZM5.24 13.06L2.58 13.06L2.58 4.72L5.24 4.72C7.41 4.72 9.34 6.23 9.34 8.89C9.34 11.54 7.41 13.06 5.24 13.06ZM14.43 5.08C14.81 5.08 15.15 4.76 15.15 4.35C15.15 3.98 14.81 3.67 14.43 3.67C14.04 3.67 13.73 3.98 13.73 4.35C13.73 4.76 14.04 5.08 14.43 5.08ZM16.93 5.08C17.32 5.08 17.64 4.76 17.64 4.35C17.64 3.98 17.32 3.67 16.93 3.67C16.53 3.67 16.21 3.98 16.21 4.35C16.21 4.76 16.53 5.08 16.93 5.08ZM11.90 10.33C11.90 12.45 13.48 14.14 15.71 14.14C17.92 14.14 19.50 12.45 19.50 10.33C19.50 8.25 17.92 6.58 15.71 6.58C13.48 6.58 11.90 8.25 11.90 10.33ZM12.94 10.36C12.94 8.76 14.08 7.49 15.71 7.49C17.32 7.49 18.45 8.76 18.45 10.36C18.45 11.94 17.32 13.23 15.71 13.23C14.08 13.23 12.94 11.94 12.94 10.36ZM26.47 6.72L23.94 13.15L21.42 6.72L20.23 6.72L23.37 14L24.50 14L27.62 6.72ZM32.00 6.58C29.96 6.58 28.38 8.19 28.38 10.33C28.38 12.50 29.92 14.14 32.02 14.14C33.68 14.14 34.94 13.06 35.18 11.76L34.19 11.76C33.98 12.66 33.12 13.23 32.02 13.23C30.58 13.23 29.51 12.15 29.40 10.63L35.22 10.63L35.32 10.54C35.50 8.41 34.02 6.58 32.00 6.58ZM29.44 9.74C29.69 8.39 30.76 7.48 31.99 7.48C33.28 7.48 34.17 8.48 34.31 9.76Z"></path></g><!----><!----></svg>