<svg data-v-423bf9ae="" xmlns="http://www.w3.org/2000/svg" viewBox="0 0 322 90" class="iconLeft"><!----><!----><!----><g data-v-423bf9ae="" id="a2dc9fb2-1cef-4b45-9f52-863743aeb0b2" fill="white" transform="matrix(5.9940058569511425,0,0,5.9940058569511425,144.73340490416336,-16.10889026371904)"><path d="M1.89 15.02L4.13 15.02C6.59 15.02 8.01 13.59 8.01 10.15C8.01 6.78 6.59 5.19 4.10 5.19C3.35 5.19 2.02 5.22 1.27 5.28C1.37 5.61 1.39 6.26 1.39 6.80L1.41 14.53C1.41 14.84 1.58 15.02 1.89 15.02ZM2.23 14.56L2.21 5.66L4.10 5.66C6.02 5.66 7.10 7.06 7.10 10.19C7.10 13.33 6.02 14.56 4.10 14.56ZM11.54 6.82C11.86 6.82 12.12 6.54 12.12 6.23C12.12 5.91 11.86 5.64 11.54 5.64C11.23 5.64 10.95 5.91 10.95 6.23C10.95 6.54 11.23 6.82 11.54 6.82ZM13.89 6.82C14.21 6.82 14.48 6.54 14.48 6.23C14.48 5.91 14.21 5.64 13.89 5.64C13.58 5.64 13.31 5.91 13.31 6.23C13.31 6.54 13.58 6.82 13.89 6.82ZM12.68 15.20C14.64 15.20 15.81 13.82 15.81 11.49C15.81 9.16 14.64 7.78 12.68 7.78C10.71 7.78 9.56 9.16 9.56 11.49C9.56 13.82 10.71 15.20 12.68 15.20ZM12.68 14.74C11.26 14.74 10.44 13.57 10.44 11.49C10.44 9.42 11.26 8.25 12.68 8.25C14.10 8.25 14.91 9.42 14.91 11.49C14.91 13.57 14.10 14.74 12.68 14.74ZM22.37 7.91C22.20 7.91 22.09 7.94 21.97 7.98C22.01 8.05 22.02 8.15 22.02 8.26C22.02 8.37 21.98 8.53 21.95 8.64L19.87 14.57L17.63 8.26C17.57 8.02 17.37 7.91 17.12 7.91C16.88 7.91 16.73 7.99 16.62 8.12C16.73 8.25 16.86 8.53 16.90 8.67L19.24 14.81C19.32 15.06 19.52 15.16 19.77 15.16C19.95 15.16 20.13 15.12 20.34 15.01L22.76 8.82C22.83 8.65 22.88 8.46 22.88 8.32C22.89 8.05 22.71 7.91 22.37 7.91ZM29.26 13.30C28.99 14.17 28.11 14.57 27.12 14.57C25.86 14.57 24.77 13.90 24.67 11.76C25.16 11.83 25.65 11.87 26.24 11.87C28.28 11.87 29.47 11.16 29.47 9.76C29.47 8.47 28.48 7.78 27.03 7.78C24.91 7.78 23.79 9.24 23.79 11.55C23.79 13.96 24.99 15.20 26.95 15.20C28.08 15.20 29.02 14.78 29.37 13.96C29.55 13.52 29.43 13.37 29.26 13.30ZM26.99 8.23C27.76 8.23 28.59 8.55 28.59 9.67C28.59 10.98 27.55 11.44 26.05 11.44C25.62 11.42 25.10 11.40 24.67 11.34C24.70 9.27 25.63 8.23 26.99 8.23Z"></path></g><!----><g data-v-423bf9ae="" id="dbff4801-67b6-44eb-8b4c-f23a845fa17e" transform="matrix(1.3234385384519765,0,0,1.3234385384519765,0.8277166923267174,-0.000428770071657425)" stroke="none" fill="white"><circle cx="13.335" cy="44.095" r="2.02"></circle><path d="M98.97 48.211c-11.74-4.688-23.077 1.095-35.083 7.217-6.003 3.062-12.213 6.227-18.636 8.122-17.95 5.3-32.268-9.386-32.477-9.604a1.637 1.637 0 00-2.373 2.253c.537.565 11.416 11.807 26.758 11.807 2.863 0 5.882-.392 9.019-1.317 6.713-1.982 13.061-5.217 19.198-8.347C76.702 52.569 87.4 47.114 97.757 51.25a1.635 1.635 0 101.213-3.039zM29.562 36.489c-3.855 4.445-5.504 9.982-3.599 13.961a1.636 1.636 0 102.953-1.413c-1.924-4.019 2.024-11.062 8.124-14.493 1.566-.881 3.242-1.795 5.017-2.763 9.928-5.417 22.045-12.029 27.322-19.612 2.002 4.059 4.604 13.154-5.132 22.89a1.636 1.636 0 102.313 2.315c2.798-2.8 4.696-5.577 5.932-8.243 1.244 2.975 2.276 8.664-3.796 14.737a1.632 1.632 0 000 2.312c.318.32.738.48 1.156.48.419 0 .838-.16 1.156-.48 10.534-10.533 3.267-20.697 2.919-21.168 2.293-9.615-3.189-16.942-3.268-17.044a1.636 1.636 0 00-2.776.299c-3.631 7.673-16.808 14.863-27.396 20.64a466.036 466.036 0 00-5.053 2.783 22.171 22.171 0 00-3.253 2.239 48.382 48.382 0 00-7.155-2.036c-.976-2.34.271-6.7 2.775-9.291l.421-.436c4.872-5.035 11.232-11.609 13.897-17.017 1.418 2.694 2.771 7.551-.609 13.784a1.638 1.638 0 002.878 1.561C50.803 8.66 42.887.558 42.807.477a1.638 1.638 0 00-2.764.86c-.901 4.837-8.888 13.092-14.172 18.555l-.422.436c-2.645 2.736-4.454 7.326-3.929 11.021-5.788-.615-12.24.206-15.232 5.824-1.3.372-3.866 1.3-5.811 3.245a1.635 1.635 0 102.314 2.313c1.934-1.935 4.916-2.545 4.941-2.55a1.639 1.639 0 001.184-.938c3.367-7.533 15.794-4.34 20.646-2.754z"></path></g><!----></svg>