<svg data-v-423bf9ae="" xmlns="http://www.w3.org/2000/svg" viewBox="0 0 169.0309583064269 60" class="font"><!----><!----><!----><g data-v-423bf9ae="" id="a5482545-e5b1-4f35-b827-e81555453ac4" fill="white" transform="matrix(5.9940058569511425,0,0,5.9940058569511425,-7.61238977357101,-31.10889026371904)"><path d="M1.89 15.02L4.13 15.02C6.59 15.02 8.01 13.59 8.01 10.15C8.01 6.78 6.59 5.19 4.10 5.19C3.35 5.19 2.02 5.22 1.27 5.28C1.37 5.61 1.39 6.26 1.39 6.80L1.41 14.53C1.41 14.84 1.58 15.02 1.89 15.02ZM2.23 14.56L2.21 5.66L4.10 5.66C6.02 5.66 7.10 7.06 7.10 10.19C7.10 13.33 6.02 14.56 4.10 14.56ZM11.54 6.82C11.86 6.82 12.12 6.54 12.12 6.23C12.12 5.91 11.86 5.64 11.54 5.64C11.23 5.64 10.95 5.91 10.95 6.23C10.95 6.54 11.23 6.82 11.54 6.82ZM13.89 6.82C14.21 6.82 14.48 6.54 14.48 6.23C14.48 5.91 14.21 5.64 13.89 5.64C13.58 5.64 13.31 5.91 13.31 6.23C13.31 6.54 13.58 6.82 13.89 6.82ZM12.68 15.20C14.64 15.20 15.81 13.82 15.81 11.49C15.81 9.16 14.64 7.78 12.68 7.78C10.71 7.78 9.56 9.16 9.56 11.49C9.56 13.82 10.71 15.20 12.68 15.20ZM12.68 14.74C11.26 14.74 10.44 13.57 10.44 11.49C10.44 9.42 11.26 8.25 12.68 8.25C14.10 8.25 14.91 9.42 14.91 11.49C14.91 13.57 14.10 14.74 12.68 14.74ZM22.37 7.91C22.20 7.91 22.09 7.94 21.97 7.98C22.01 8.05 22.02 8.15 22.02 8.26C22.02 8.37 21.98 8.53 21.95 8.64L19.87 14.57L17.63 8.26C17.57 8.02 17.37 7.91 17.12 7.91C16.88 7.91 16.73 7.99 16.62 8.12C16.73 8.25 16.86 8.53 16.90 8.67L19.24 14.81C19.32 15.06 19.52 15.16 19.77 15.16C19.95 15.16 20.13 15.12 20.34 15.01L22.76 8.82C22.83 8.65 22.88 8.46 22.88 8.32C22.89 8.05 22.71 7.91 22.37 7.91ZM29.26 13.30C28.99 14.17 28.11 14.57 27.12 14.57C25.86 14.57 24.77 13.90 24.67 11.76C25.16 11.83 25.65 11.87 26.24 11.87C28.28 11.87 29.47 11.16 29.47 9.76C29.47 8.47 28.48 7.78 27.03 7.78C24.91 7.78 23.79 9.24 23.79 11.55C23.79 13.96 24.99 15.20 26.95 15.20C28.08 15.20 29.02 14.78 29.37 13.96C29.55 13.52 29.43 13.37 29.26 13.30ZM26.99 8.23C27.76 8.23 28.59 8.55 28.59 9.67C28.59 10.98 27.55 11.44 26.05 11.44C25.62 11.42 25.10 11.40 24.67 11.34C24.70 9.27 25.63 8.23 26.99 8.23Z"></path></g><!----><!----></svg>