<svg data-v-423bf9ae="" xmlns="http://www.w3.org/2000/svg" viewBox="0 0 175.19249334313537 180" class="iconAboveSlogan"><!----><!----><!----><g data-v-423bf9ae="" id="1828067d-9192-4f2c-8812-b362ac8741b0" fill="#B69E97" transform="matrix(6.243495961422735,0,0,6.243495961422735,-8.553593144615775,76.52758045993906)"><path d="M1.37 13.65L4.35 13.65C7.42 13.65 8.74 11.34 8.74 8.86C8.74 6.26 7.31 4.40 4.34 4.40L1.37 4.40ZM2.59 12.61L2.59 5.43L4.21 5.43C6.12 5.43 7.39 6.34 7.39 8.92C7.39 11.61 6.12 12.61 4.30 12.61ZM13.17 13.85C15.26 13.85 16.14 12.32 16.14 10.33C16.14 8.25 15.15 7.03 13.17 7.03C11.13 7.03 10.18 8.44 10.18 10.33C10.18 12.47 11.06 13.85 13.17 13.85ZM13.17 12.92C12.01 12.92 11.38 12.08 11.38 10.47C11.38 8.88 12.01 7.95 13.17 7.95C14.32 7.95 14.94 8.85 14.94 10.47C14.94 11.96 14.32 12.92 13.17 12.92ZM14.43 5.75C14.84 5.75 15.19 5.40 15.19 5.00C15.19 4.59 14.84 4.24 14.43 4.24C14.03 4.24 13.68 4.59 13.68 5.00C13.68 5.40 14.03 5.75 14.43 5.75ZM11.76 5.75C12.17 5.75 12.52 5.40 12.52 5.00C12.52 4.59 12.17 4.24 11.76 4.24C11.35 4.24 11.00 4.59 11.00 5.00C11.00 5.40 11.35 5.75 11.76 5.75ZM19.57 13.65L20.47 13.65L22.99 7.22L21.90 7.22L20.40 11.19C20.27 11.49 20.15 11.87 20.06 12.17L19.74 11.19L18.21 7.22L17.00 7.22ZM29.43 10.61L29.43 9.91C29.43 7.95 28.52 7.03 26.82 7.03C24.58 7.03 23.86 8.75 23.86 10.47C23.86 12.78 24.95 13.85 26.85 13.85C28.27 13.85 29.11 13.16 29.43 12.01L28.45 11.82C28.27 12.40 27.72 12.92 26.88 12.92C25.41 12.92 25.07 11.80 25.06 10.61ZM26.80 7.95C27.80 7.95 28.27 8.61 28.27 9.46L28.27 9.72L25.10 9.72C25.27 8.50 25.90 7.95 26.80 7.95Z"></path></g><!----><g data-v-423bf9ae="" id="92306195-5180-4a70-8f65-6c7641df19cd" transform="matrix(1.3234385384519765,0,0,1.3234385384519765,21.827716692326717,-0.000428770071657425)" stroke="none" fill="#B69E97"><circle cx="13.335" cy="44.095" r="2.02"></circle><path d="M98.97 48.211c-11.74-4.688-23.077 1.095-35.083 7.217-6.003 3.062-12.213 6.227-18.636 8.122-17.95 5.3-32.268-9.386-32.477-9.604a1.637 1.637 0 00-2.373 2.253c.537.565 11.416 11.807 26.758 11.807 2.863 0 5.882-.392 9.019-1.317 6.713-1.982 13.061-5.217 19.198-8.347C76.702 52.569 87.4 47.114 97.757 51.25a1.635 1.635 0 101.213-3.039zM29.562 36.489c-3.855 4.445-5.504 9.982-3.599 13.961a1.636 1.636 0 102.953-1.413c-1.924-4.019 2.024-11.062 8.124-14.493 1.566-.881 3.242-1.795 5.017-2.763 9.928-5.417 22.045-12.029 27.322-19.612 2.002 4.059 4.604 13.154-5.132 22.89a1.636 1.636 0 102.313 2.315c2.798-2.8 4.696-5.577 5.932-8.243 1.244 2.975 2.276 8.664-3.796 14.737a1.632 1.632 0 000 2.312c.318.32.738.48 1.156.48.419 0 .838-.16 1.156-.48 10.534-10.533 3.267-20.697 2.919-21.168 2.293-9.615-3.189-16.942-3.268-17.044a1.636 1.636 0 00-2.776.299c-3.631 7.673-16.808 14.863-27.396 20.64a466.036 466.036 0 00-5.053 2.783 22.171 22.171 0 00-3.253 2.239 48.382 48.382 0 00-7.155-2.036c-.976-2.34.271-6.7 2.775-9.291l.421-.436c4.872-5.035 11.232-11.609 13.897-17.017 1.418 2.694 2.771 7.551-.609 13.784a1.638 1.638 0 002.878 1.561C50.803 8.66 42.887.558 42.807.477a1.638 1.638 0 00-2.764.86c-.901 4.837-8.888 13.092-14.172 18.555l-.422.436c-2.645 2.736-4.454 7.326-3.929 11.021-5.788-.615-12.24.206-15.232 5.824-1.3.372-3.866 1.3-5.811 3.245a1.635 1.635 0 102.314 2.313c1.934-1.935 4.916-2.545 4.941-2.55a1.639 1.639 0 001.184-.938c3.367-7.533 15.794-4.34 20.646-2.754z"></path></g><!----><g data-v-423bf9ae="" id="fba4af24-e81c-4adc-abbc-7610f6a74fc5" fill="#B69E97" transform="matrix(0.520167754432421,0,0,0.520167754432421,22.566722737106446,203.79954256262008)"><path d="M5.11 10.57C2.86 10.57 1.60 8.93 1.60 6.85C1.60 4.76 2.86 3.12 5.11 3.12C6.64 3.12 7.64 3.85 8.12 4.98L9.23 4.98C8.64 3.29 7.13 2.10 5.03 2.10C2.24 2.10 0.55 4.21 0.55 6.85C0.55 9.48 2.24 11.59 5.03 11.59C7.13 11.59 8.64 10.40 9.23 8.71L8.12 8.71C7.64 9.84 6.64 10.57 5.11 10.57ZM21.84 2.10C19.03 2.10 17.14 4.21 17.14 6.85C17.14 9.48 19.03 11.59 21.84 11.59C24.65 11.59 26.54 9.48 26.54 6.85C26.54 4.21 24.65 2.10 21.84 2.10ZM21.84 10.57C19.59 10.57 18.19 8.93 18.19 6.85C18.19 4.76 19.59 3.12 21.84 3.12C24.09 3.12 25.49 4.76 25.49 6.85C25.49 8.93 24.09 10.57 21.84 10.57ZM42.17 2.21L42.17 10.01L36.44 2.21L35.22 2.21L35.22 11.48L36.27 11.48L36.27 3.65L42 11.48L43.22 11.48L43.22 2.21ZM59.43 2.21L59.43 10.01L53.70 2.21L52.49 2.21L52.49 11.48L53.54 11.48L53.54 3.65L59.26 11.48L60.48 11.48L60.48 2.21ZM76.57 3.22L76.57 2.21L69.75 2.21L69.75 11.48L76.57 11.48L76.57 10.47L70.80 10.47L70.80 7.35L75.95 7.35L75.95 6.33L70.80 6.33L70.80 3.22ZM89.07 10.57C86.81 10.57 85.55 8.93 85.55 6.85C85.55 4.76 86.81 3.12 89.07 3.12C90.59 3.12 91.60 3.85 92.08 4.98L93.18 4.98C92.60 3.29 91.08 2.10 88.98 2.10C86.20 2.10 84.50 4.21 84.50 6.85C84.50 9.48 86.20 11.59 88.98 11.59C91.08 11.59 92.60 10.40 93.18 8.71L92.08 8.71C91.60 9.84 90.59 10.57 89.07 10.57ZM108.25 2.21L100.73 2.21L100.73 3.22L103.96 3.22L103.96 11.48L105.01 11.48L105.01 3.22L108.25 3.22ZM132.13 3.70L134.64 11.48L135.83 11.48L138.71 2.21L137.61 2.21L135.23 10.00L132.73 2.21L131.53 2.21L129.04 10.00L126.66 2.21L125.55 2.21L128.44 11.48L129.63 11.48ZM148.02 2.21L146.97 2.21L146.97 11.48L148.02 11.48ZM163.87 2.21L156.35 2.21L156.35 3.22L159.59 3.22L159.59 11.48L160.64 11.48L160.64 3.22L163.87 3.22ZM178.64 2.21L178.64 6.33L173.25 6.33L173.25 2.21L172.20 2.21L172.20 11.48L173.25 11.48L173.25 7.35L178.64 7.35L178.64 11.48L179.69 11.48L179.69 2.21ZM205.76 3.22L205.76 2.21L198.94 2.21L198.94 11.48L205.76 11.48L205.76 10.47L199.99 10.47L199.99 7.35L205.14 7.35L205.14 6.33L199.99 6.33L199.99 3.22ZM218.61 2.21L217.29 2.21L213.36 11.48L214.52 11.48L215.66 8.79L220.25 8.79L221.38 11.48L222.54 11.48ZM216.06 7.83L217.95 3.30L219.84 7.83ZM231.34 4.65C231.34 4.03 231.70 3.08 233.80 3.08C235.49 3.08 236.28 3.82 236.39 4.75L237.47 4.75C237.38 3.36 236.26 2.10 233.80 2.10C231.48 2.10 230.31 3.15 230.31 4.66C230.31 7.84 236.66 6.69 236.66 8.96C236.66 10.05 235.68 10.60 234.11 10.60C232.50 10.60 231.20 10.05 231.13 8.71L230.03 8.71C230.17 10.37 231.29 11.59 234.04 11.59C236.32 11.59 237.71 10.64 237.71 8.92C237.71 5.68 231.34 6.80 231.34 4.65ZM253.15 3.22L253.15 2.21L246.33 2.21L246.33 11.48L253.15 11.48L253.15 10.47L247.38 10.47L247.38 7.35L252.53 7.35L252.53 6.33L247.38 6.33L247.38 3.22Z"></path></g></svg>