<svg data-v-423bf9ae="" xmlns="http://www.w3.org/2000/svg" viewBox="0 0 175.19249334313537 60" class="font"><!----><!----><!----><g data-v-423bf9ae="" id="cb287de5-0fc8-4f89-b66a-9b6cc4266011" fill="white" transform="matrix(6.243495961422735,0,0,6.243495961422735,-8.553593144615775,-26.47242144740958)"><path d="M1.37 13.65L4.35 13.65C7.42 13.65 8.74 11.34 8.74 8.86C8.74 6.26 7.31 4.40 4.34 4.40L1.37 4.40ZM2.59 12.61L2.59 5.43L4.21 5.43C6.12 5.43 7.39 6.34 7.39 8.92C7.39 11.61 6.12 12.61 4.30 12.61ZM13.17 13.85C15.26 13.85 16.14 12.32 16.14 10.33C16.14 8.25 15.15 7.03 13.17 7.03C11.13 7.03 10.18 8.44 10.18 10.33C10.18 12.47 11.06 13.85 13.17 13.85ZM13.17 12.92C12.01 12.92 11.38 12.08 11.38 10.47C11.38 8.88 12.01 7.95 13.17 7.95C14.32 7.95 14.94 8.85 14.94 10.47C14.94 11.96 14.32 12.92 13.17 12.92ZM14.43 5.75C14.84 5.75 15.19 5.40 15.19 5.00C15.19 4.59 14.84 4.24 14.43 4.24C14.03 4.24 13.68 4.59 13.68 5.00C13.68 5.40 14.03 5.75 14.43 5.75ZM11.76 5.75C12.17 5.75 12.52 5.40 12.52 5.00C12.52 4.59 12.17 4.24 11.76 4.24C11.35 4.24 11.00 4.59 11.00 5.00C11.00 5.40 11.35 5.75 11.76 5.75ZM19.57 13.65L20.47 13.65L22.99 7.22L21.90 7.22L20.40 11.19C20.27 11.49 20.15 11.87 20.06 12.17L19.74 11.19L18.21 7.22L17.00 7.22ZM29.43 10.61L29.43 9.91C29.43 7.95 28.52 7.03 26.82 7.03C24.58 7.03 23.86 8.75 23.86 10.47C23.86 12.78 24.95 13.85 26.85 13.85C28.27 13.85 29.11 13.16 29.43 12.01L28.45 11.82C28.27 12.40 27.72 12.92 26.88 12.92C25.41 12.92 25.07 11.80 25.06 10.61ZM26.80 7.95C27.80 7.95 28.27 8.61 28.27 9.46L28.27 9.72L25.10 9.72C25.27 8.50 25.90 7.95 26.80 7.95Z"></path></g><!----><!----></svg>